<svg width="37" height="40" viewBox="0 0 37 40" fill="none" xmlns="http://www.w3.org/2000/svg">
<g id="process_card_2.svg" clip-path="url(#clip0_89_1399)">
<path id="Vector" fill-rule="evenodd" clip-rule="evenodd" d="M17.118 0.0653968C16.5819 0.275422 16.2948 0.730021 16.2948 1.36877V1.82705L15.7132 2.04278L15.1315 2.25859L14.735 1.9063C13.9491 1.20815 13.4177 1.30695 12.27 2.36465L11.4775 3.09494L10.9906 2.93877C8.14176 2.02535 5.10177 4.12927 5.10177 7.01437C5.10177 7.33992 5.15074 7.78569 5.21066 8.00501L5.31963 8.40372L3.79095 8.43851C2.12581 8.47642 1.90887 8.52308 1.313 8.97127C1.13218 9.10727 0.896058 9.40234 0.764704 9.65629L0.534011 10.1025L0.510719 14.3291C0.487675 18.5242 0.488827 18.5572 0.660756 18.7648C0.877211 19.0261 1.31621 19.0519 1.56279 18.8177C1.72319 18.6653 1.72739 18.5571 1.72756 14.5773C1.72764 10.0731 1.71768 10.1649 2.24762 9.79535C2.46177 9.64598 2.61296 9.63152 4.20287 9.6083L5.92603 9.58306L6.41161 10.0442C8.1718 11.7159 10.9175 11.7386 12.7501 10.0967L13.3135 9.59204L23.9336 9.61276C34.5287 9.63339 34.5544 9.63386 34.7862 9.79535C34.914 9.88438 35.0833 10.0778 35.1624 10.2252C35.297 10.4759 35.3064 11.0854 35.3065 19.6189L35.3066 28.7445H18.517H1.72739V24.8363C1.72739 21.0323 1.72303 20.924 1.56279 20.7718C1.31621 20.5376 0.877211 20.5633 0.660756 20.8247C0.48784 21.0334 0.48751 21.0475 0.510719 26.3157L0.534011 31.5974L0.757049 31.999C0.879762 32.2199 1.13737 32.5284 1.32954 32.6847C1.97956 33.2131 1.78113 33.1998 8.98495 33.1998H15.4718V34.3268V35.4539L13.5583 35.4811C11.7495 35.5067 11.6235 35.5182 11.255 35.6908C10.7586 35.9235 10.2678 36.3892 10.0245 36.8582C9.87175 37.1527 9.82863 37.3834 9.80608 38.0264L9.77801 38.8275H5.35033C1.14683 38.8275 0.913012 38.835 0.732441 38.9738C0.468169 39.177 0.468169 39.6505 0.732441 39.8538C0.91688 39.9956 1.44904 40 18.517 40C35.585 40 36.1171 39.9956 36.3016 39.8538C36.5658 39.6505 36.5658 39.177 36.3016 38.9738C36.121 38.835 35.8872 38.8275 31.6856 38.8275H27.2597L27.2276 38.0264C27.2023 37.3939 27.1558 37.148 27.0074 36.8582C26.7675 36.3905 26.2769 35.9242 25.779 35.6908C25.4105 35.5182 25.2845 35.5067 23.4757 35.4811L21.5622 35.4539V34.3268V33.1998H23.9378C26.2166 33.1998 26.3224 33.1931 26.5303 33.0377C26.8021 32.8348 26.8277 32.4164 26.5826 32.1836C26.4195 32.0287 26.3082 32.0273 14.5048 32.0272C3.32775 32.0271 2.57378 32.0186 2.3035 31.8904C1.86879 31.6842 1.71982 31.334 1.7464 30.5813L1.76854 29.956H18.517H35.2655L35.2876 30.5813C35.3142 31.334 35.1652 31.6842 34.7305 31.8904C34.4731 32.0125 34.1424 32.0271 31.6236 32.0272C28.9146 32.0273 28.7983 32.0334 28.6402 32.1836C28.4756 32.34 28.4183 32.763 28.5385 32.934C28.7092 33.1767 28.9872 33.1998 31.7473 33.1998C34.88 33.1998 35.1072 33.1702 35.7045 32.6847C35.8966 32.5284 36.1542 32.2199 36.277 31.999L36.5 31.5974V20.8499V10.1025L36.3253 9.74376C36.1023 9.28596 35.6314 8.83871 35.1493 8.62696C34.7854 8.46704 34.6395 8.46016 31.1298 8.4364L27.4879 8.4117L27.4874 7.96742C27.4869 7.33976 27.3688 7.00929 27.0355 6.70257C26.7757 6.46339 26.6892 6.43283 26.1911 6.40391C25.8858 6.38625 25.5939 6.3395 25.5423 6.30011C25.4908 6.26079 25.3659 6.01872 25.2649 5.76234L25.0813 5.2961L25.3725 4.99001C25.7797 4.56207 25.8609 4.3894 25.8609 3.95255C25.8609 3.46848 25.6578 3.18099 24.6896 2.29454C23.6172 1.31273 23.0676 1.22347 22.299 1.9063L21.9025 2.25859L21.3208 2.04278L20.7392 1.82705V1.34509C20.7392 0.815298 20.5694 0.487714 20.1367 0.182877C19.9274 0.035382 19.7784 0.0176389 18.6141 0.00208434C17.8702 -0.00792059 17.2365 0.0188895 17.118 0.0653968ZM19.5064 1.56309C19.5087 2.06873 19.7324 2.55858 20.0633 2.78236C20.2 2.87483 20.337 2.95049 20.3677 2.95049C20.3984 2.95049 20.6767 3.05601 20.9861 3.18498C21.8623 3.55016 22.3981 3.47802 22.9582 2.91946L23.2432 2.63526L23.9252 3.27964C24.3005 3.63411 24.6074 3.95872 24.6074 4.00101C24.6074 4.04329 24.4531 4.22721 24.2647 4.40957C23.9672 4.69737 23.9173 4.79593 23.8867 5.15509C23.8576 5.49776 23.9028 5.68934 24.1499 6.26916C24.5823 7.28419 24.7943 7.45537 25.7207 7.53752L26.2534 7.58473V8.00337V8.42194H24.087H21.9204L21.8257 7.93834C21.6223 6.89939 20.9538 6.06812 19.9409 5.59453C19.4176 5.34988 19.3334 5.33448 18.5187 5.33448C17.7205 5.33448 17.6106 5.35347 17.1128 5.57749C16.1139 6.02708 15.4122 6.89681 15.2083 7.93834L15.1136 8.42194H14.5021C13.9608 8.42194 13.8967 8.4067 13.9441 8.28937C13.9735 8.21652 14.0396 7.89996 14.091 7.5859C14.278 6.44354 13.8244 5.04433 12.9787 4.15554L12.6008 3.75831L13.1959 3.19686L13.7911 2.63541L14.0759 2.91954C14.6359 3.47802 15.1718 3.55016 16.0479 3.18498C16.3573 3.05601 16.6356 2.95049 16.6663 2.95049C16.697 2.95049 16.834 2.87483 16.9707 2.78236C17.3017 2.55858 17.5253 2.06873 17.5276 1.56309L17.5294 1.15273H18.517H19.5046L19.5064 1.56309ZM10.4103 3.99468C11.0239 4.15038 11.4993 4.40715 11.9286 4.815C13.5269 6.33286 13.0817 8.85285 11.0467 9.80762C10.4447 10.09 10.3834 10.1024 9.59119 10.1008C8.83055 10.0993 8.72084 10.0792 8.22316 9.84936C7.56302 9.54452 6.91061 8.91616 6.59934 8.28539C6.40248 7.88652 6.37746 7.74301 6.37746 7.01499C6.37746 6.28815 6.40272 6.14316 6.59802 5.74734C6.85802 5.22052 7.44483 4.59872 7.94457 4.32062C8.66241 3.92105 9.62065 3.79442 10.4103 3.99468ZM10.6851 5.78392C10.4656 6.00965 10.0361 6.46449 9.73085 6.79473C9.42551 7.12497 9.13869 7.3944 9.09342 7.39354C9.04816 7.3926 8.78652 7.13998 8.51196 6.83217C8.11378 6.38562 7.96012 6.26752 7.75206 6.24805C7.43495 6.21835 7.07702 6.51654 7.07702 6.81036C7.07702 7.04415 8.64331 8.85285 8.90125 8.91695C8.994 8.94 9.15474 8.9282 9.25836 8.89076C9.43901 8.82557 11.5715 6.66537 11.8727 6.24242C12.1452 5.85981 11.8652 5.37356 11.3723 5.37356C11.1302 5.37356 11.0203 5.43922 10.6851 5.78392ZM19.1913 6.55977C19.8361 6.74322 20.4848 7.45842 20.618 8.1325L20.6752 8.42194H18.517H16.3588L16.416 8.1325C16.544 7.48483 17.1907 6.74971 17.794 6.5661C18.1669 6.45261 18.8046 6.44972 19.1913 6.55977ZM6.07343 12.7521C5.6662 12.8562 5.55814 12.9184 5.11511 13.3031C4.64294 13.7132 4.48739 14.0821 4.48739 14.7923C4.48739 15.5298 4.64738 15.8858 5.1872 16.3489C5.89072 16.9525 4.69109 16.9027 18.517 16.9027C32.3429 16.9027 31.1433 16.9525 31.8468 16.3489C32.3866 15.8858 32.5466 15.5298 32.5466 14.7923C32.5466 14.0547 32.3866 13.6988 31.8468 13.2356C31.3358 12.7971 31.0254 12.7007 29.9981 12.6611C29.1619 12.6288 29.0755 12.6391 28.8665 12.7964C28.5853 13.008 28.5557 13.4224 28.8048 13.6589C28.9451 13.7922 29.0791 13.8152 29.7127 13.8152C30.5924 13.8152 30.9551 13.934 31.1894 14.2991C31.4005 14.6278 31.4005 14.9567 31.1894 15.2855C30.8923 15.7482 30.7453 15.7693 27.8198 15.7693H25.1835V14.7923V13.8152H25.883C26.4729 13.8152 26.6084 13.7907 26.7472 13.6589C26.9923 13.4261 26.9667 13.0078 26.6949 12.8048C26.4782 12.6428 26.4745 12.6428 16.4689 12.648C8.67656 12.6521 6.37416 12.6752 6.07343 12.7521ZM23.9078 14.7923V15.7302L15.3072 15.753C9.6046 15.7682 6.60798 15.7489 6.41367 15.6958C5.93673 15.5653 5.71904 15.2827 5.71904 14.7941C5.71904 14.4893 5.76282 14.3322 5.88364 14.2035C6.25606 13.8072 5.93311 13.8198 15.2249 13.8377L23.9078 13.8543V14.7923ZM5.47329 18.0492C5.02128 18.3868 5.01947 18.4053 5.01947 22.6086C5.01947 26.8119 5.02128 26.8305 5.47329 27.1681C5.69698 27.3352 5.74348 27.3375 8.84652 27.3375C11.9495 27.3375 11.996 27.3352 12.2197 27.1681C12.6627 26.8372 12.6736 26.7465 12.6736 23.3903C12.6736 20.9315 12.6503 20.2462 12.5597 20.0463C12.4972 19.9079 11.9846 19.3639 11.4208 18.8372L10.3956 17.8797H8.04786C5.76406 17.8797 5.69394 17.8843 5.47329 18.0492ZM10.6762 19.7736L11.439 20.4951V23.3301V26.1651H8.84652H6.254V22.6086V19.0522H8.08366H9.91332L10.6762 19.7736ZM14.9141 19.8773C14.6656 20.0426 14.6602 20.5302 14.9044 20.7401C15.0645 20.8778 15.2257 20.889 17.0419 20.889C18.9545 20.889 19.011 20.8845 19.1869 20.7175C19.4086 20.5069 19.4231 20.1286 19.2176 19.913C19.0752 19.7636 18.9674 19.7556 17.0823 19.7556C15.4186 19.7556 15.0673 19.7753 14.9141 19.8773ZM20.4243 19.9365C20.0957 20.2687 20.2734 20.7767 20.7577 20.8896C20.8606 20.9136 23.3462 20.9233 26.2811 20.9111L31.6173 20.889L31.8159 20.6697C32.0592 20.401 32.0661 20.2297 31.8439 19.9616L31.6734 19.7556H26.1383H20.6033L20.4243 19.9365ZM7.16253 20.3176C6.83703 20.6494 7.02896 21.1674 7.52088 21.2848C7.63157 21.3111 8.1472 21.3208 8.66685 21.3063C9.77381 21.2753 9.95759 21.187 9.95759 20.686C9.95759 20.2063 9.79167 20.1465 8.46101 20.1465C7.40384 20.1465 7.3194 20.1576 7.16253 20.3176ZM7.19677 22.2143C7.08566 22.3198 6.99472 22.4972 6.99472 22.6086C6.99472 22.72 7.08566 22.8974 7.19677 23.003C7.39578 23.192 7.42006 23.1948 8.8317 23.1948C10.1567 23.1948 10.281 23.1826 10.4815 23.0328C10.7814 22.8088 10.7814 22.4084 10.4815 22.1844C10.281 22.0346 10.1567 22.0224 8.8317 22.0224C7.42006 22.0224 7.39578 22.0252 7.19677 22.2143ZM14.8957 22.804C14.6506 23.0368 14.6762 23.4551 14.948 23.6581C15.45 24.0332 16.2948 23.7636 16.2948 23.2282C16.2948 22.82 16.0628 22.6477 15.513 22.6477C15.17 22.6477 15.0204 22.6856 14.8957 22.804ZM17.3648 22.804C17.1197 23.0368 17.1453 23.4551 17.417 23.6581C17.9191 24.0332 18.7639 23.7636 18.7639 23.2282C18.7639 22.82 18.5318 22.6477 17.982 22.6477C17.6391 22.6477 17.4895 22.6856 17.3648 22.804ZM19.8338 22.804C19.5887 23.0368 19.6143 23.4551 19.8861 23.6581C20.3881 24.0332 21.233 23.7636 21.233 23.2282C21.233 22.82 21.0009 22.6477 20.4511 22.6477C20.1082 22.6477 19.9585 22.6856 19.8338 22.804ZM22.3029 22.804C22.0578 23.0368 22.0834 23.4551 22.3552 23.6581C22.8572 24.0332 23.702 23.7636 23.702 23.2282C23.702 22.82 23.4699 22.6477 22.9202 22.6477C22.5772 22.6477 22.4276 22.6856 22.3029 22.804ZM24.772 22.804C24.5269 23.0368 24.5525 23.4551 24.8242 23.6581C25.0352 23.8157 25.1284 23.8202 28.2359 23.8202C30.435 23.8202 31.4943 23.7926 31.6347 23.7318C32.0523 23.5512 32.0894 22.9313 31.6947 22.7306C31.5875 22.6762 30.401 22.6477 28.2341 22.6477C25.0463 22.6477 24.931 22.6529 24.772 22.804ZM7.34985 23.9744C6.96855 24.1258 6.87925 24.6279 7.18517 24.9008C7.36631 25.0624 7.44903 25.0708 8.86915 25.0708C10.2996 25.0708 10.3698 25.0636 10.5305 24.8997C10.7411 24.685 10.7456 24.3619 10.5411 24.1219C10.388 23.9422 10.3471 23.9369 8.9568 23.9203C8.17189 23.9108 7.44878 23.9352 7.34985 23.9744ZM14.8957 25.6961C14.6506 25.9288 14.6762 26.3472 14.948 26.5502C15.164 26.7116 15.1945 26.7122 23.2978 26.7122C29.167 26.7122 31.4875 26.6877 31.6347 26.6239C32.0523 26.4432 32.0894 25.8233 31.6947 25.6227C31.5828 25.5658 28.9437 25.5397 23.296 25.5397C15.17 25.5397 15.0581 25.5419 14.8957 25.6961ZM20.3277 34.3331V35.4665H18.517H16.7064V34.3331V33.1998H18.517H20.3277V34.3331ZM25.4038 36.8416C25.878 37.1753 26.0065 37.4595 26.0065 38.1747V38.8275H18.517H11.0275V38.1983C11.0275 37.3799 11.2687 36.9485 11.8506 36.726C11.9837 36.6752 14.3695 36.6528 18.6139 36.6627C25.1261 36.678 25.1731 36.6791 25.4038 36.8416Z" fill="#0A50B2"/>
</g>
<defs>
<clipPath id="clip0_89_1399">
<rect width="36" height="40" fill="white" transform="translate(0.5)"/>
</clipPath>
</defs>
</svg>
