<svg width="36" height="41" viewBox="0 0 36 41" fill="none" xmlns="http://www.w3.org/2000/svg">
<g id="process_card_1.svg" clip-path="url(#clip0_89_1440)">
<path id="Vector" fill-rule="evenodd" clip-rule="evenodd" d="M10.346 0.627155C9.52917 0.893631 8.82784 1.60762 8.64173 2.3621C8.59392 2.55557 8.55484 3.45255 8.55467 4.3554C8.55451 6.26631 8.61498 6.49174 9.23 6.87117L9.58679 7.0913L14.6252 7.11522C18.0657 7.13155 19.7622 7.11224 19.9744 7.05448C20.3506 6.95208 20.7567 6.64613 20.9291 6.33533C20.9991 6.20932 21.0789 5.80785 21.1065 5.44319L21.1567 4.78032L24.539 4.80237L27.9213 4.82441L28.1414 5.02968C28.3197 5.19594 28.3639 5.31476 28.3739 5.65503C28.3838 5.99311 28.3617 6.06932 28.2604 6.0454C28.1912 6.02906 27.6628 5.9992 27.0862 5.97912C24.8559 5.90126 22.9834 6.55701 21.3669 7.9821C18.0308 10.9233 17.9422 15.6601 21.1673 18.6659C22.9419 20.3198 25.3806 21.0873 27.9053 20.7863L28.4309 20.7236L28.4085 29.8017L28.3862 38.8796L28.1123 39.1077L27.8384 39.3358H14.8776C0.784806 39.3358 1.57562 39.3608 1.35429 38.9081C1.27755 38.7512 1.25406 34.7954 1.25406 22.053C1.25406 3.93869 1.22337 5.08667 1.713 4.87874C1.86632 4.81362 2.6256 4.78533 4.22082 4.78533C6.50387 4.78533 6.50907 4.78494 6.69107 4.60444C6.93429 4.36306 6.92356 4.04327 6.66398 3.80134L6.45455 3.60615L3.99856 3.62898C1.5518 3.65181 1.54099 3.65267 1.1265 3.8516C0.658079 4.07642 0.213312 4.56716 0.0837321 5.00224C0.0251065 5.19884 -0.0019839 10.753 0.000112863 22.0996C0.00279673 35.9362 0.0231772 38.9577 0.115687 39.1992C0.281247 39.6315 0.621427 40.0077 1.06821 40.2525L1.46374 40.4692L14.6696 40.4897C29.3328 40.5125 28.3527 40.5466 28.965 39.9923C29.1318 39.8414 29.3529 39.5703 29.4563 39.39L29.6443 39.0622L29.6672 29.7178L29.6902 20.3733L30.3382 20.0753C31.9451 19.3365 33.3157 18.0401 34.0509 16.5636C34.3944 15.8736 34.6951 14.8406 34.7618 14.1209C34.814 13.5575 34.8027 13.4816 34.637 13.2861C34.503 13.1281 34.3801 13.0712 34.1733 13.0712C33.7666 13.0712 33.5819 13.3281 33.5158 13.9854C33.295 16.1806 31.8016 18.1607 29.6636 19.0932C28.3301 19.6748 26.5527 19.8313 25.1617 19.4897C23.5097 19.0838 22.0723 18.1272 21.1783 16.8384C20.4127 15.7348 20.0986 14.7321 20.096 13.3839C20.0926 11.6382 20.6974 10.2845 22.054 9.00103C22.8867 8.21317 23.603 7.79395 24.7379 7.43008C25.4935 7.18783 25.5974 7.17462 26.7508 7.17353C28.1511 7.17228 28.6617 7.2728 29.7282 7.75971C30.9123 8.30033 31.0393 8.01853 28.5767 10.3137L26.4232 12.3208L25.2221 11.2241C24.2439 10.331 23.9447 10.1033 23.6096 9.99689C22.6036 9.67742 21.5935 10.0275 21.1118 10.8626C20.8059 11.3928 20.7538 11.8016 20.9228 12.3452C21.0575 12.7786 21.15 12.8788 23.1292 14.7338C24.4297 15.9528 25.3221 16.7274 25.5381 16.8248C26.0021 17.0342 26.8279 17.0345 27.2904 16.8255C27.5155 16.7238 29.0174 15.3757 31.7102 12.8585C36.1042 8.75081 36.0015 8.86619 35.9995 8.03338C35.997 6.98131 35.113 6.16867 33.9636 6.16164C33.2803 6.1575 32.8697 6.34518 32.1467 6.99218L31.6265 7.45775L31.2644 7.22621C31.0653 7.09888 30.6342 6.86898 30.3065 6.71546L29.7105 6.43632L29.6667 5.78666C29.5989 4.7811 29.2551 4.21649 28.4701 3.82088C28.1438 3.6565 28.0388 3.65126 24.6448 3.62914L21.1549 3.60639L21.0998 3.04287C21.0694 2.73293 20.9861 2.31333 20.9144 2.1104C20.7474 1.6374 20.1386 1.00612 19.5889 0.735809L19.1605 0.525145L14.9669 0.506385C11.1266 0.489266 10.7374 0.499428 10.346 0.627155ZM19.1754 1.8612C19.3056 1.95117 19.4977 2.14198 19.6024 2.28534C19.7876 2.53908 19.7921 2.59075 19.7701 4.23236L19.7476 5.91877L14.8924 5.93894C11.3764 5.95355 10.0059 5.93479 9.92311 5.87077C9.83379 5.80159 9.80888 5.44648 9.80888 4.24088C9.80888 2.78249 9.81927 2.68103 10.002 2.35898C10.1348 2.12502 10.3107 1.96165 10.5647 1.83642L10.9343 1.65429L14.9365 1.67594C18.8473 1.6972 18.9441 1.70142 19.1754 1.8612ZM34.4769 7.49066C34.6888 7.66935 34.7853 7.99344 34.7071 8.26382C34.6597 8.42821 33.4654 9.59128 30.714 12.1527L26.7885 15.8071H26.4174H26.0462L24.1346 14.0316C22.1679 12.2049 21.969 11.9607 22.1291 11.5684C22.2418 11.2922 22.6181 11.0388 22.9157 11.0388C23.1293 11.0388 23.3936 11.2465 24.6563 12.4068C25.9806 13.6235 26.1757 13.7747 26.4227 13.7747C26.6762 13.7747 26.9987 13.4977 30.1432 10.5789C32.0369 8.82124 33.6428 7.36293 33.712 7.33823C33.9029 7.26999 34.312 7.35152 34.4769 7.49066ZM3.6183 9.32215C3.49853 9.42611 3.4347 9.57447 3.4347 9.74902C3.4347 9.92357 3.49853 10.0719 3.6183 10.1759C3.79384 10.3284 3.90287 10.3353 6.13819 10.3353H8.47458L8.6804 10.1434C8.79362 10.0379 8.8863 9.86041 8.8863 9.74902C8.8863 9.63763 8.79362 9.46019 8.6804 9.35466L8.47458 9.16276H6.13819C3.90287 9.16276 3.79384 9.16964 3.6183 9.32215ZM4.63607 14.8205C3.86857 15.0546 3.39251 15.4533 3.05175 16.1477C2.85356 16.5516 2.8315 16.6769 2.86472 17.2118C2.91168 17.9677 3.21412 18.5215 3.81212 18.9465C5.107 19.8668 6.87449 19.4681 7.67931 18.074C7.80067 17.8638 7.83724 17.6372 7.83699 17.0969C7.83666 16.3246 7.71093 16.0002 7.20259 15.4606C6.64796 14.8718 5.44877 14.5727 4.63607 14.8205ZM9.0111 15.4173C8.80176 15.6329 8.81643 16.0112 9.0423 16.2218C9.22564 16.3927 9.24082 16.3934 13.0611 16.4166C15.1703 16.4293 17.0187 16.4189 17.1689 16.3934C17.4919 16.3385 17.7766 16.0803 17.7766 15.8419C17.7766 15.7484 17.6983 15.5791 17.6027 15.4659L17.4289 15.2599H13.2964C9.26162 15.2599 9.1603 15.2637 9.0111 15.4173ZM5.98404 16.0624C6.52651 16.3523 6.79037 17.075 6.52769 17.5515C6.08451 18.3554 5.09987 18.512 4.44534 17.8825C4.21034 17.6565 4.15532 17.5369 4.12378 17.1822C4.093 16.8362 4.12127 16.7009 4.27165 16.4742C4.63892 15.9203 5.38319 15.7414 5.98404 16.0624ZM9.26078 17.992C8.8535 18.1459 8.72334 18.6364 9.0111 18.9328C9.1603 19.0864 9.26162 19.0902 13.2964 19.0902H17.4289L17.6027 18.8842C17.885 18.5498 17.8015 18.2159 17.3837 18.0085C17.1679 17.9014 9.54183 17.8859 9.26078 17.992ZM4.81857 21.9724C4.04352 22.1612 3.45081 22.602 3.10517 23.2467C2.46004 24.45 3.0213 25.8985 4.353 26.4672C4.63019 26.5856 4.90697 26.6306 5.36373 26.6318C6.38762 26.6344 7.14674 26.1991 7.64811 25.3219C7.80328 25.0503 7.83682 24.8672 7.83733 24.2884C7.83783 23.6541 7.81342 23.5436 7.58915 23.1662C7.3123 22.7004 6.93387 22.3755 6.3914 22.1379C5.9884 21.9613 5.20312 21.8787 4.81857 21.9724ZM9.0111 22.5306C8.78012 22.7684 8.81425 23.1444 9.08667 23.3627L9.31504 23.5458H14.6314H19.9478L20.1754 23.3634C20.4636 23.1323 20.4778 22.7169 20.2046 22.5107C20.0351 22.3827 19.6482 22.3732 14.5932 22.3732C9.25885 22.3732 9.16123 22.376 9.0111 22.5306ZM6.0274 23.2932C6.84908 23.8602 6.80932 24.8985 5.94973 25.3221C5.51453 25.5366 5.26392 25.543 4.8106 25.3511C4.31459 25.1413 4.07531 24.7478 4.12227 24.2196C4.16597 23.7286 4.36047 23.4524 4.81857 23.2307C5.21477 23.0391 5.6951 23.0638 6.0274 23.2932ZM9.33534 25.085C8.87623 25.1688 8.70229 25.7539 9.0423 26.0711C9.22245 26.2391 9.27898 26.243 11.803 26.2668C13.2202 26.2801 14.5026 26.2697 14.6527 26.2437C15.3703 26.1191 15.4759 25.3489 14.8078 25.1122C14.5884 25.0345 9.74471 25.0104 9.33534 25.085ZM4.93766 29.1017C4.17436 29.2119 3.44971 29.7076 3.08655 30.3681C2.83603 30.8235 2.78051 31.6812 2.96763 32.2061C3.14711 32.7098 3.67164 33.2656 4.22116 33.5344C4.58943 33.7145 4.75265 33.7446 5.36373 33.7447C5.9416 33.7449 6.14373 33.7116 6.43073 33.5695C7.00147 33.2867 7.38635 32.9208 7.64132 32.4186C8.5093 30.7086 6.9613 28.8094 4.93766 29.1017ZM9.11233 29.5734C8.73877 29.7759 8.78616 30.3995 9.18798 30.5701C9.33509 30.6327 10.5822 30.6591 13.3812 30.6591H17.3649L17.5707 30.4672C17.6839 30.3617 17.7766 30.1842 17.7766 30.0728C17.7766 29.9614 17.6839 29.784 17.5707 29.6785L17.3649 29.4866L13.3143 29.4889C10.6411 29.4905 9.21222 29.5192 9.11233 29.5734ZM5.78308 30.3101C6.26358 30.4345 6.62179 30.9275 6.62179 31.4644C6.62179 32.3159 5.61534 32.8684 4.77831 32.4763C3.94547 32.0864 3.86588 31.0138 4.62978 30.4748C5.00686 30.2087 5.25461 30.1733 5.78308 30.3101ZM9.04934 32.3666C8.7729 32.5752 8.79052 32.9745 9.08667 33.2119L9.31504 33.395H14.6314H19.9478L20.1754 33.2126C20.4636 32.9815 20.4778 32.5661 20.2046 32.3599C20.0351 32.2319 19.6499 32.2225 14.6314 32.2225C9.51717 32.2225 9.23059 32.2299 9.04934 32.3666Z" fill="#0A50B2"/>
</g>
<defs>
<clipPath id="clip0_89_1440">
<rect width="36" height="40" fill="white" transform="translate(0 0.5)"/>
</clipPath>
</defs>
</svg>
