<svg width="37" height="40" viewBox="0 0 37 40" fill="none" xmlns="http://www.w3.org/2000/svg">
<g id="process_card_3.svg" clip-path="url(#clip0_89_1412)">
<path id="Vector" fill-rule="evenodd" clip-rule="evenodd" d="M9.67471 0.124265C9.3044 0.312916 9.18809 0.487266 8.77754 1.46819L8.39649 2.37878L7.79447 2.64042L7.19245 2.90206L6.34248 2.5443C5.43215 2.16105 4.97071 2.09557 4.59866 2.29703C4.48636 2.35783 4.0163 2.80617 3.5541 3.29343C2.66087 4.23496 2.48414 4.54912 2.58336 5.01958C2.68318 5.49347 3.30796 6.99197 3.46298 7.12936C3.79654 7.42507 4.35667 7.15976 4.35667 6.70603C4.35667 6.59693 4.20218 6.12655 4.01327 5.66071L3.66995 4.81373L4.37104 4.08625C4.75663 3.68605 5.11666 3.35868 5.17118 3.35868C5.22571 3.35868 5.64185 3.51693 6.09595 3.71035C6.55005 3.90377 7.03358 4.06218 7.17045 4.06233C7.52277 4.06288 8.93711 3.45832 9.18643 3.20067C9.30183 3.08141 9.55712 2.58032 9.7585 2.0779L10.1221 1.17052H11.1568H12.1916L12.5605 2.08877C12.7723 2.61604 13.0156 3.09087 13.1318 3.20395C13.3894 3.45449 14.8259 4.06398 15.1561 4.06288C15.2938 4.06241 15.7803 3.90377 16.2373 3.71035C16.6942 3.51693 17.1098 3.35868 17.1607 3.35868C17.2947 3.35868 18.5734 4.70714 18.5734 4.84843C18.5734 4.91392 18.4203 5.36124 18.2331 5.8424C18.046 6.32357 17.8928 6.80809 17.8928 6.91906C17.8928 7.22228 18.5036 8.74102 18.7224 8.98179C18.8326 9.10308 19.2912 9.35519 19.8042 9.57651L20.6947 9.96068L20.6739 11.0408L20.653 12.1209L19.7947 12.5005C19.3227 12.7093 18.8559 12.9584 18.7575 13.054C18.5382 13.2668 17.8922 14.8214 17.8945 15.1305C17.8954 15.2537 18.0607 15.7821 18.2619 16.3048L18.6275 17.2552L17.8991 18.0052L17.1706 18.7551L16.3029 18.3921C15.7726 18.1702 15.3175 18.029 15.1327 18.029C14.7606 18.0289 13.399 18.6039 13.1217 18.8782C13.0139 18.9849 12.7787 19.4434 12.599 19.8971C12.4192 20.3508 12.2243 20.7715 12.1657 20.8321C12.0218 20.9807 10.2194 20.9917 10.1272 20.8445C10.0936 20.7908 9.9254 20.3981 9.75351 19.9718C9.58162 19.5456 9.35537 19.086 9.25071 18.9504C9.01167 18.6407 7.64648 18.0299 7.19245 18.0294C7.00681 18.0291 6.55452 18.1694 6.02162 18.3924L5.15326 18.7556L4.42019 17.9929L3.6872 17.2301L4.05872 16.2923C4.26297 15.7765 4.43063 15.2728 4.43123 15.1728C4.43289 14.8814 3.82732 13.3639 3.60999 13.1152C3.48642 12.9737 3.08283 12.7429 2.54177 12.5043L1.67212 12.1209L1.65125 11.0387L1.63038 9.95662L2.42841 9.61785C3.23748 9.27454 3.44922 9.09847 3.44922 8.76907C3.44922 8.54369 3.13168 8.2039 2.921 8.2039C2.70798 8.2039 1.15563 8.88262 0.907673 9.08425C0.557094 9.36918 0.5 9.64559 0.5 11.0577C0.5 12.8245 0.543028 12.898 1.93597 13.5075L2.78685 13.8798L3.03791 14.5232L3.28905 15.1666L2.96071 15.9765C2.36088 17.4561 2.38092 17.56 3.49731 18.7541C4.30714 19.6204 4.74158 19.9271 5.15568 19.9251C5.27773 19.9246 5.7859 19.754 6.285 19.546L7.19245 19.168L7.79553 19.4345C8.12721 19.581 8.40443 19.7076 8.41146 19.7158C8.4185 19.7241 8.58403 20.1253 8.77921 20.6074C9.20624 21.6624 9.42388 21.9147 10.0161 22.0417C10.5611 22.1587 12.3419 22.1053 12.5994 21.9643C12.9982 21.7459 13.2014 21.451 13.5467 20.5891L13.9 19.7078L14.5125 19.4407L15.1251 19.1738L16.0363 19.5483C16.5375 19.7542 17.0422 19.9235 17.1579 19.9245C17.5516 19.9277 17.8541 19.7089 18.738 18.7816C19.9527 17.5072 19.9598 17.4703 19.3025 15.8403L19.0258 15.1539L19.2805 14.5175L19.5354 13.8812L20.3877 13.5082C21.7829 12.8976 21.8251 12.8255 21.8251 11.0525C21.8251 9.22913 21.7919 9.1699 20.4458 8.59191C20.0191 8.40873 19.6306 8.22008 19.5826 8.17272C19.5345 8.12544 19.3894 7.82668 19.26 7.50893L19.0247 6.93125L19.3389 6.14132C19.9604 4.57921 19.9507 4.53029 18.7737 3.29343C18.31 2.80617 17.8388 2.35783 17.7265 2.29703C17.3554 2.09611 16.9008 2.16129 15.9934 2.54531L15.1454 2.90425L14.6242 2.68739C14.3375 2.56813 14.052 2.43207 13.9899 2.38503C13.9276 2.33806 13.7281 1.93802 13.5464 1.49609C13.1291 0.481249 13.043 0.34863 12.6769 0.155603C12.4136 0.0167329 12.234 -0.00147575 11.1467 8.72244e-05C10.1839 0.0014939 9.86233 0.0286115 9.67471 0.124265ZM26.9989 0.0740159C26.7543 0.176313 26.4898 0.547988 26.288 1.07291C26.1234 1.50117 26.0699 1.56595 25.7888 1.67685C25.4901 1.79477 25.4529 1.79251 25.0674 1.63324C24.053 1.21428 23.8969 1.25015 23.0958 2.08666C22.2723 2.94645 22.2215 3.16441 22.625 4.10719C22.8086 4.53623 22.8105 4.55858 22.691 4.88204C22.5781 5.18721 22.5253 5.2323 22.0576 5.42189C21.777 5.53567 21.4483 5.73558 21.3271 5.86624C21.112 6.09803 21.1061 6.12655 21.0809 7.05613C21.0468 8.31745 21.1038 8.4346 21.9471 8.83745C22.4915 9.09745 22.5739 9.16497 22.6793 9.43717C22.7945 9.73468 22.791 9.76281 22.5636 10.3784C22.2456 11.2393 22.2953 11.4024 23.1313 12.2458C23.9293 13.0508 24.096 13.0982 24.9033 12.75C25.4533 12.5127 25.4716 12.5102 25.768 12.6328C26.038 12.7445 26.1015 12.8264 26.3564 13.392C26.7406 14.2448 26.8389 14.2995 27.9882 14.2995C29.126 14.2995 29.2202 14.2469 29.6135 13.3921C29.8711 12.8323 29.9401 12.7438 30.2032 12.6349C30.4933 12.515 30.5164 12.5182 31.0668 12.7523C31.8945 13.1044 32.0523 13.0565 32.8785 12.2026C33.6986 11.3552 33.7347 11.2259 33.3977 10.3446C33.1685 9.74531 33.1648 9.71639 33.2796 9.43232C33.3829 9.17685 33.4796 9.10003 34.0255 8.83941C34.8659 8.43819 34.9294 8.30604 34.8948 7.03081C34.8704 6.1289 34.8638 6.09725 34.6494 5.86624C34.5281 5.73558 34.1999 5.53591 33.9201 5.42243C33.462 5.23667 33.399 5.18431 33.2905 4.89868C33.1726 4.58859 33.1754 4.56639 33.4083 3.93245C33.7323 3.05109 33.6831 2.88752 32.8428 2.05383C32.0222 1.23976 31.9171 1.21686 30.9091 1.63324C30.52 1.79391 30.4886 1.79563 30.178 1.67309C29.8849 1.55736 29.8372 1.50007 29.6857 1.0812C29.3461 0.142865 29.1133 -0.00366391 27.9731 0.00321317C27.5239 0.00594838 27.0855 0.037833 26.9989 0.0740159ZM28.7305 1.7371C29.0335 2.40957 29.1239 2.49983 29.7594 2.76514C30.3703 3.02022 30.622 3.0196 31.2462 2.76131L31.7455 2.55477L32.0924 2.91324L32.4393 3.2717L32.2366 3.80554C31.9844 4.46988 31.9835 4.68752 32.2302 5.3185C32.4869 5.97526 32.5742 6.06865 33.225 6.38179L33.7732 6.6457V7.17218V7.69867L33.3109 7.88842C32.6813 8.14685 32.5457 8.274 32.3023 8.83456C31.9883 9.55775 31.9753 9.83447 32.2256 10.4769L32.4383 11.0228L32.1069 11.3717C31.9247 11.5636 31.7375 11.7206 31.6909 11.7206C31.6444 11.7206 31.3884 11.6292 31.1223 11.5173C30.5328 11.2698 30.2813 11.2918 29.5664 11.6533C29.0593 11.9097 29.0401 11.9304 28.7623 12.5216L28.4776 13.1273H27.967H27.4562L27.2726 12.6495C27.0138 11.9759 26.8903 11.8452 26.2543 11.5716C25.579 11.2811 25.4021 11.2756 24.8121 11.5267C24.5626 11.633 24.3229 11.72 24.2796 11.7202C24.2363 11.7204 24.0518 11.5636 23.8696 11.3718L23.5383 11.023L23.7404 10.4907C23.9975 9.81353 23.9941 9.64973 23.7085 8.94077C23.4438 8.28354 23.3173 8.15592 22.6656 7.88842L22.2032 7.69867V7.17531V6.65195L22.7893 6.35342C23.353 6.06622 23.3849 6.03504 23.627 5.53708C23.9784 4.81428 24.0027 4.51771 23.7615 3.89471C23.6531 3.61462 23.5644 3.35165 23.5644 3.31023C23.5644 3.26881 23.7168 3.0804 23.903 2.89151L24.2417 2.54805L24.7364 2.75795C25.353 3.01967 25.6044 3.02092 26.217 2.76514C26.8527 2.49975 26.9427 2.40941 27.2412 1.7371L27.4929 1.17052H27.984H28.4751L28.7305 1.7371ZM27.1376 3.79202C26.5545 3.95425 26.1594 4.18612 25.6989 4.6361C23.9479 6.34756 24.3974 9.22577 26.5843 10.3051C27.1348 10.5767 27.188 10.5874 27.9921 10.5874C28.8076 10.5874 28.8421 10.5802 29.4098 10.2902C30.6834 9.63973 31.4349 8.32855 31.3369 6.92812C31.2999 6.39859 31.121 6.17204 30.74 6.17204C30.3725 6.17204 30.219 6.40953 30.219 6.97837C30.219 7.77948 30.0455 8.23954 29.5506 8.7504C29.0642 9.2525 28.6134 9.45428 27.9776 9.45428C26.7933 9.45428 25.7574 8.39701 25.7574 7.1882C25.7574 6.31098 26.2321 5.50863 26.9958 5.0953C27.3223 4.91861 27.4785 4.88563 27.9882 4.88571C28.5223 4.88579 28.6483 4.91541 29.0636 5.13821C29.6175 5.43533 29.6817 5.44189 29.9442 5.22855C30.1921 5.027 30.2174 4.60734 29.9953 4.37782C29.4393 3.80327 28.0907 3.52678 27.1376 3.79202ZM9.89333 6.01722C8.16078 6.48627 6.67944 8.04323 6.27941 9.81564C6.12537 10.4979 6.12786 11.6927 6.28455 12.3067C6.73495 14.0712 7.97929 15.4191 9.68795 15.9931C10.1966 16.164 10.4314 16.1964 11.1626 16.1964C11.8952 16.1964 12.1276 16.1643 12.6372 15.9924C14.1995 15.4655 15.4101 14.2408 15.9331 12.6584C16.1635 11.9613 16.2211 10.5559 16.0484 9.84299C15.5973 7.98008 14.1696 6.48072 12.4021 6.01355C11.6468 5.81396 10.6386 5.81537 9.89333 6.01722ZM12.0925 7.14804C13.4745 7.52002 14.549 8.61238 14.9093 10.0116C14.9688 10.2423 15.0179 10.7149 15.0183 11.0616C15.0199 12.1441 14.6996 12.9626 13.951 13.7896C13.3596 14.4429 12.5417 14.8826 11.6775 15.0117C9.80932 15.2908 7.99139 14.0634 7.41576 12.1345C7.24872 11.5746 7.26656 10.4617 7.45259 9.8394C8.04795 7.84786 10.154 6.62624 12.0925 7.14804ZM20.6562 20.7292C20.4915 20.8255 20.2533 21.0565 20.1268 21.2425L19.8968 21.5808L19.8764 29.1209C19.8627 34.1874 19.882 36.7607 19.9351 36.9646C20.0364 37.3536 20.3246 37.7055 20.7192 37.9224C21.0058 38.0798 21.1588 38.0959 22.6092 38.1213C23.4772 38.1364 24.3043 38.1261 24.4473 38.0984C24.9381 38.0032 25.1558 37.5326 24.8822 37.158C24.7754 37.0115 24.6558 36.9992 22.9879 36.9626C21.3371 36.9264 21.1999 36.9125 21.1005 36.7719C21.0098 36.6435 20.9933 35.4973 20.9933 29.323C20.9933 24.4424 21.0192 21.9759 21.0715 21.8748C21.1478 21.7275 21.2875 21.7236 26.4741 21.7236H31.7985L31.9162 21.8973C32.02 22.0504 32.0338 22.7042 32.0324 27.4264L32.0309 32.7817L31.4855 33.0466C31.1071 33.2304 30.7928 33.4637 30.4591 33.8085L29.9782 34.3056H27.8678C25.8582 34.3056 25.7501 34.3131 25.6062 34.4619C25.381 34.6946 25.4045 35.1128 25.6542 35.3158C25.8434 35.4697 25.9463 35.4778 27.704 35.4778C29.3604 35.4778 29.5498 35.4908 29.5087 35.6014C29.4835 35.6694 29.4628 36.0035 29.4628 36.3438V36.9626H27.9181H26.3733L26.2166 37.1685C25.9479 37.5215 26.0527 37.8905 26.468 38.0537C26.5874 38.1005 27.3521 38.1348 28.2793 38.1348H29.884L30.0125 38.3598C30.2209 38.7242 31.0127 39.4335 31.4445 39.6425C33.09 40.4387 34.965 39.8716 35.9696 38.2739C36.5971 37.276 36.6743 35.9167 36.1665 34.8117C35.6972 33.7905 34.6853 32.9452 33.7354 32.7812C33.569 32.7524 33.3745 32.7124 33.303 32.6922C33.182 32.658 33.1717 32.2775 33.1518 27.1638L33.1304 21.6721L32.9036 21.2936C32.7546 21.0451 32.5623 20.8527 32.3435 20.7333L32.0101 20.5514L26.4828 20.5526L20.9555 20.554L20.6562 20.7292ZM10.8076 23.2407L10.5954 23.4294V27.0288V30.6282L10.7676 30.8062C10.9385 30.983 10.9585 30.9846 13.545 31.0233L16.1502 31.0624L15.7375 31.4141C15.5105 31.6075 15.2884 31.856 15.2441 31.9663C15.1451 32.213 15.2492 32.5407 15.4643 32.6597C15.8011 32.846 15.9618 32.7564 17.1053 31.7449C18.13 30.8385 18.2352 30.7217 18.2559 30.4676C18.2764 30.2149 18.2361 30.1473 17.8368 29.7655C17.5938 29.5332 17.0805 29.0705 16.696 28.7375C16.1328 28.2494 15.9485 28.1318 15.7468 28.1318C15.4336 28.1318 15.2209 28.3598 15.2209 28.6953C15.2209 28.902 15.303 29.0207 15.7061 29.397L16.1913 29.8501L13.9605 29.8311L11.7297 29.812L11.71 26.5934L11.6902 23.3748L11.4918 23.2135C11.2333 23.0032 11.0673 23.0099 10.8076 23.2407ZM22.2512 23.2923C22.0015 23.4953 21.978 23.9135 22.2032 24.1462C22.3383 24.2859 22.4553 24.3025 23.2997 24.3025C24.1442 24.3025 24.2611 24.2859 24.3962 24.1462C24.6214 23.9135 24.5979 23.4953 24.3482 23.2923C24.1735 23.1502 24.0444 23.1303 23.2997 23.1303C22.5551 23.1303 22.4259 23.1502 22.2512 23.2923ZM25.6542 23.2923C25.4045 23.4953 25.381 23.9135 25.6062 24.1462C25.7512 24.2961 25.8582 24.3025 28.2096 24.3025H30.6618L30.8185 24.0966C31.0264 23.8235 31.0165 23.5565 30.7896 23.3222L30.604 23.1303H28.2287C25.9402 23.1303 25.8461 23.1362 25.6542 23.2923ZM22.2032 25.5529C21.978 25.7856 22.0015 26.2039 22.2512 26.4068C22.4259 26.5489 22.5551 26.5688 23.2997 26.5688C24.0444 26.5688 24.1735 26.5489 24.3482 26.4068C24.5022 26.2817 24.5475 26.1761 24.5475 25.9424C24.5475 25.4651 24.3889 25.3966 23.2829 25.3966C22.4553 25.3966 22.338 25.4136 22.2032 25.5529ZM25.6062 25.5529C25.3794 25.7873 25.4045 26.2039 25.658 26.41C25.8563 26.5712 25.9161 26.5745 28.2736 26.5524L30.6863 26.5298L30.8307 26.3453C31.0264 26.0954 31.0138 25.7739 30.8003 25.5665C30.628 25.3993 30.5862 25.3966 28.1913 25.3966C25.8582 25.3966 25.7511 25.4031 25.6062 25.5529ZM22.2512 27.7468C22.0015 27.9497 21.978 28.368 22.2032 28.6007C22.3383 28.7404 22.4553 28.757 23.2997 28.757C24.1442 28.757 24.2611 28.7404 24.3962 28.6007C24.6214 28.368 24.5979 27.9497 24.3482 27.7468C24.1735 27.6047 24.0444 27.5848 23.2997 27.5848C22.5551 27.5848 22.4259 27.6047 22.2512 27.7468ZM25.658 27.7437C25.4045 27.9497 25.3794 28.3663 25.6062 28.6007C25.7512 28.7506 25.8582 28.757 28.2019 28.757H30.6464L30.8108 28.5762C31.0137 28.3529 31.0215 28.0519 30.8307 27.8084L30.6863 27.6238L28.2736 27.6013C25.9161 27.5791 25.8563 27.5824 25.658 27.7437ZM22.2032 30.0074C21.978 30.2401 22.0015 30.6584 22.2512 30.8613C22.4259 31.0034 22.5551 31.0233 23.2997 31.0233C24.0444 31.0233 24.1735 31.0034 24.3482 30.8613C24.5979 30.6584 24.6214 30.2401 24.3962 30.0074C24.2611 29.8677 24.1442 29.8511 23.2997 29.8511C22.4553 29.8511 22.3383 29.8677 22.2032 30.0074ZM25.6062 30.0074C25.381 30.2401 25.4045 30.6584 25.6542 30.8613C25.8461 31.0174 25.9402 31.0233 28.2287 31.0233H30.604L30.7896 30.8315C31.0165 30.5971 31.0264 30.3301 30.8185 30.057L30.6618 29.8511H28.2096C25.8582 29.8511 25.7512 29.8575 25.6062 30.0074ZM22.4301 32.0914C22.0384 32.2516 21.9185 32.761 22.2032 33.0552C22.338 33.1945 22.4553 33.2115 23.2829 33.2115C24.385 33.2115 24.5475 33.1422 24.5475 32.6721C24.5475 32.171 24.3768 32.0812 23.3865 32.0617C22.9229 32.0525 22.4925 32.0659 22.4301 32.0914ZM25.833 32.0947C25.5798 32.1909 25.4549 32.3816 25.4549 32.6721C25.4549 33.2091 25.4668 33.2115 28.2187 33.2115H30.6464L30.8108 33.0306C31.0824 32.7319 31.0184 32.3412 30.6673 32.1536C30.4928 32.0603 30.0385 32.0404 28.2 32.0454C26.9605 32.0488 25.8954 32.071 25.833 32.0947ZM34.0601 34.1569C34.939 34.5999 35.4113 35.47 35.3447 36.5233C35.2868 37.4392 34.8088 38.1776 34.0123 38.5819C33.4482 38.8681 32.5686 38.889 32.0206 38.6291C31.4914 38.378 31.0267 37.8932 30.7875 37.3423C30.6015 36.9141 30.5828 36.7951 30.6129 36.229C30.6619 35.3068 31.0145 34.6736 31.7152 34.2493C32.4961 33.7763 33.2463 33.7468 34.0601 34.1569ZM22.2175 34.4649C21.9776 34.6959 21.9938 35.1066 22.2512 35.3158C22.4249 35.457 22.5555 35.4778 23.2686 35.4778C24.177 35.4778 24.4305 35.4003 24.5351 35.0903C24.6193 34.8406 24.4808 34.434 24.285 34.3564C24.2146 34.3284 23.7578 34.3056 23.27 34.3056C22.4819 34.3056 22.3645 34.3233 22.2175 34.4649ZM33.622 35.2205C33.5596 35.2432 33.332 35.439 33.1161 35.6554C32.7249 36.048 32.7233 36.0487 32.5259 35.9151C32.2498 35.7282 31.8943 35.7816 31.7102 36.0376C31.5156 36.3081 31.5762 36.5584 31.9356 36.9697C32.2656 37.347 32.5956 37.538 32.8172 37.4797C33.047 37.4192 34.2838 36.1049 34.3414 35.86C34.4214 35.5189 33.9509 35.1006 33.622 35.2205Z" fill="#0A50B2"/>
</g>
<defs>
<clipPath id="clip0_89_1412">
<rect width="36" height="40" fill="white" transform="translate(0.5)"/>
</clipPath>
</defs>
</svg>
