<svg width="20" height="20" viewBox="0 0 20 20" fill="none" xmlns="http://www.w3.org/2000/svg">
<g id="Frame">
<g id="Group">
<path id="Vector" d="M11.5546 10.1087L18.6396 3.75475C18.4228 3.62832 18.1766 3.56133 17.9256 3.56055H2.07442C1.82347 3.56133 1.57718 3.62832 1.36042 3.75475L8.44522 10.1087C8.86619 10.5043 9.42214 10.7246 9.99982 10.7246C10.5775 10.7246 11.1336 10.5043 11.5546 10.1087ZM19.2444 4.36715L13.7354 9.30815L19.2848 15.5581C19.427 15.2824 19.5008 14.9764 19.5 14.6661V5.33415C19.5014 4.995 19.4132 4.66151 19.2444 4.36735V4.36715ZM0.755616 4.36715C0.586798 4.66137 0.498629 4.99494 0.500016 5.33415V14.6661C0.499209 14.9764 0.573017 15.2824 0.715216 15.5581L6.26462 9.30815L0.755616 4.36715Z" fill="#B1B4BA"/>
<path id="Vector_2" d="M12.055 10.816C10.9002 11.901 9.101 11.901 7.9462 10.816L6.8968 9.875L1.2832 16.1978C1.51761 16.3547 1.79311 16.4391 2.0752 16.4402H17.926C18.2081 16.4391 18.4836 16.3547 18.718 16.1978L13.1046 9.875L12.055 10.816Z" fill="#B1B4BA"/>
</g>
</g>
</svg>
