<svg width="20" height="20" viewBox="0 0 20 20" fill="none" xmlns="http://www.w3.org/2000/svg">
<g id="Frame">
<g id="Group">
<path id="Vector" d="M6.04232 5.83333C6.04232 3.65083 7.81815 1.875 10.0007 1.875C12.1832 1.875 13.959 3.65083 13.959 5.83333C13.959 8.01583 12.1832 9.79167 10.0007 9.79167C7.81815 9.79167 6.04232 8.01583 6.04232 5.83333ZM12.5007 11.0417H7.50065C4.85898 11.0417 2.70898 13.1917 2.70898 15.8333C2.70943 16.441 2.95101 17.0236 3.38069 17.4533C3.81036 17.883 4.393 18.1246 5.00065 18.125H15.0007C15.6083 18.1246 16.1909 17.883 16.6206 17.4533C17.0503 17.0236 17.2919 16.441 17.2923 15.8333C17.2923 13.1917 15.1423 11.0417 12.5007 11.0417Z" fill="#B1B4BA"/>
</g>
</g>
</svg>
