<svg width="20" height="20" viewBox="0 0 20 20" fill="none" xmlns="http://www.w3.org/2000/svg">
<g id="Frame" clip-path="url(#clip0_710_2886)">
<g id="Group">
<path id="Vector" d="M12.5 5.41699C12.279 5.41699 12.067 5.32919 11.9107 5.17291C11.7545 5.01663 11.6667 4.80467 11.6667 4.58366V3.33366H8.33333V4.58366C8.33333 4.80467 8.24554 5.01663 8.08926 5.17291C7.93297 5.32919 7.72101 5.41699 7.5 5.41699C7.27899 5.41699 7.06702 5.32919 6.91074 5.17291C6.75446 5.01663 6.66667 4.80467 6.66667 4.58366V3.33366C6.66667 2.41449 7.41417 1.66699 8.33333 1.66699H11.6667C12.5858 1.66699 13.3333 2.41449 13.3333 3.33366V4.58366C13.3333 4.80467 13.2455 5.01663 13.0893 5.17291C12.933 5.32919 12.721 5.41699 12.5 5.41699ZM10.5917 12.817C10.1911 12.9547 9.75506 12.9488 9.35833 12.8003L0 9.68366V16.042C0 17.3087 1.025 18.3337 2.29167 18.3337H17.7083C18.975 18.3337 20 17.3087 20 16.042V9.68366L10.5917 12.817Z" fill="#B1B4BA"/>
<path id="Vector_2" d="M20 6.45866V8.36699L10.2 11.6337C10.1333 11.6587 10.0667 11.667 10 11.667C9.93333 11.667 9.86667 11.6587 9.8 11.6337L0 8.36699V6.45866C0 5.19199 1.025 4.16699 2.29167 4.16699H17.7083C18.975 4.16699 20 5.19199 20 6.45866Z" fill="#B1B4BA"/>
</g>
</g>
<defs>
<clipPath id="clip0_710_2886">
<rect width="20" height="20" fill="white"/>
</clipPath>
</defs>
</svg>
