<svg width="49" height="48" viewBox="0 0 49 48" fill="none" xmlns="http://www.w3.org/2000/svg">
<g id="Frame">
<g id="Group">
<path id="Vector" d="M44.5 26C43.9696 26 43.4609 26.2107 43.0858 26.5858C42.7107 26.9609 42.5 27.4696 42.5 28V36.426C42.4984 37.9038 41.9106 39.3207 40.8657 40.3657C39.8207 41.4106 38.4038 41.9984 36.926 42H12.074C10.5962 41.9984 9.17932 41.4106 8.13434 40.3657C7.08936 39.3207 6.50159 37.9038 6.5 36.426V28C6.5 27.4696 6.28929 26.9609 5.91421 26.5858C5.53914 26.2107 5.03043 26 4.5 26C3.96957 26 3.46086 26.2107 3.08579 26.5858C2.71071 26.9609 2.5 27.4696 2.5 28V36.426C2.50265 38.9644 3.51218 41.398 5.30708 43.1929C7.10198 44.9878 9.53563 45.9974 12.074 46H36.926C39.4644 45.9974 41.898 44.9878 43.6929 43.1929C45.4878 41.398 46.4974 38.9644 46.5 36.426V28C46.5 27.4696 46.2893 26.9609 45.9142 26.5858C45.5391 26.2107 45.0304 26 44.5 26Z" fill="#B1B4BA"/>
<path id="Vector_2" d="M13.9148 17.4136L22.5008 8.82757V33.9996C22.5008 34.53 22.7115 35.0387 23.0866 35.4138C23.4617 35.7889 23.9704 35.9996 24.5008 35.9996C25.0312 35.9996 25.54 35.7889 25.915 35.4138C26.2901 35.0387 26.5008 34.53 26.5008 33.9996V8.82757L35.0868 17.4136C35.464 17.7779 35.9692 17.9795 36.4936 17.9749C37.018 17.9704 37.5196 17.76 37.8905 17.3892C38.2613 17.0184 38.4716 16.5168 38.4762 15.9924C38.4807 15.468 38.2791 14.9628 37.9148 14.5856L25.9148 2.58557C25.5398 2.21063 25.0311 2 24.5008 2C23.9705 2 23.4619 2.21063 23.0868 2.58557L11.0868 14.5856C10.7225 14.9628 10.5209 15.468 10.5255 15.9924C10.53 16.5168 10.7404 17.0184 11.1112 17.3892C11.482 17.76 11.9836 17.9704 12.508 17.9749C13.0324 17.9795 13.5376 17.7779 13.9148 17.4136Z" fill="#B1B4BA"/>
</g>
</g>
</svg>
