<svg width="16" height="16" viewBox="0 0 16 16" fill="none" xmlns="http://www.w3.org/2000/svg">
<g id="Icon" clip-path="url(#clip0_89_1044)">
<path id="Vector" d="M15.4286 7.97319C15.4286 8.05652 15.3988 8.12795 15.3393 8.18747L11.9107 11.3482C11.8155 11.4315 11.7113 11.4494 11.5982 11.4018C11.4851 11.3482 11.4286 11.2619 11.4286 11.1428V9.14283H0.285714C0.202381 9.14283 0.133929 9.11605 0.0803571 9.06247C0.0267857 9.0089 0 8.94045 0 8.85712V7.14283C0 7.0595 0.0267857 6.99105 0.0803571 6.93747C0.133929 6.8839 0.202381 6.85712 0.285714 6.85712H11.4286V4.85712C11.4286 4.73212 11.4851 4.64581 11.5982 4.59819C11.7113 4.55057 11.8155 4.56545 11.9107 4.64283L15.3393 7.76783C15.3988 7.82736 15.4286 7.89581 15.4286 7.97319Z" fill="white"/>
</g>
<defs>
<clipPath id="clip0_89_1044">
<rect width="16" height="16" fill="white" transform="matrix(1 0 0 -1 0 16)"/>
</clipPath>
</defs>
</svg>
