<svg width="95" height="94" viewBox="0 0 95 94" fill="none" xmlns="http://www.w3.org/2000/svg">
<g id="Group 13">
<g id="Group 12">
<path id="Ellipse 18" d="M87.4379 23.3605C82.454 15.1438 75.0398 8.66566 66.2132 4.81561C57.3867 0.965565 47.5806 -0.0676616 38.1411 1.85779C28.7017 3.78323 20.0918 8.57295 13.4935 15.5693C6.89522 22.5657 2.63206 31.4258 1.28934 40.933L10.5314 42.229C11.6056 34.6232 15.0161 27.5352 20.2948 21.9381C25.5734 16.341 32.4613 12.5092 40.0129 10.9688C47.5644 9.42849 55.4093 10.2551 62.4706 13.3351C69.5318 16.4151 75.4632 21.5976 79.4503 28.171L87.4379 23.3605Z" fill="#0048AE"/>
<path id="Ellipse 17" d="M87.2629 23.0744C91.6566 30.2015 94.0396 38.3776 94.1609 46.7411C94.2822 55.1047 92.1373 63.3459 87.9522 70.5966L79.8617 65.9599C83.2098 60.1594 84.9257 53.5663 84.8287 46.8755C84.7316 40.1847 82.8252 33.6439 79.3103 27.9421L87.2629 23.0744Z" fill="#5CE092"/>
<path id="Ellipse 19" d="M87.9383 70.6206C82.3645 80.2639 73.5047 87.5957 62.9679 91.2843C52.4312 94.973 40.9162 94.774 30.5142 90.7234C20.1122 86.6729 11.5129 79.0394 6.27805 69.2092C1.04318 59.3791 -0.480122 48.0041 1.98477 37.1502L11.0878 39.2028C9.11587 47.8859 10.3345 56.9859 14.5224 64.85C18.7103 72.7141 25.5897 78.8209 33.9113 82.0614C42.233 85.3018 51.4449 85.461 59.8743 82.5101C68.3037 79.5592 75.3915 73.6938 79.8506 65.9791L87.9383 70.6206Z" fill="#FFD200"/>
</g>
</g>
</svg>
