<svg width="43" height="42" viewBox="0 0 43 42" fill="none" xmlns="http://www.w3.org/2000/svg">
<g id="rocket-lunch_6955502 1" clip-path="url(#clip0_89_1230)">
<path id="Vector" d="M5.31434 26.25H0.500092V24.5C0.4736 22.0463 1.12343 19.6327 2.3783 17.5239C3.63317 15.4152 5.44459 13.6928 7.61384 12.5458C9.75083 11.4921 12.0652 10.8452 14.4388 10.6383C13.4017 11.9216 12.3616 13.2854 11.3186 14.7297C8.96942 18.3783 6.95959 22.2345 5.31434 26.25ZM27.7703 31.1727C24.1221 33.5249 20.2659 35.5377 16.2501 37.1858V42H18.0001C20.4538 42.0265 22.8674 41.3767 24.9762 40.1218C27.0849 38.8669 28.8073 37.0555 29.9543 34.8862C31.008 32.7493 31.6548 30.4349 31.8618 28.0612C30.5843 29.0938 29.2205 30.1309 27.7703 31.1727ZM42.5001 5.23425C42.2673 12.852 36.7828 20.4067 25.7316 28.3342C22.7242 30.2838 19.5516 31.9656 16.2501 33.3602V32.375C16.2423 30.753 15.5944 29.1996 14.4475 28.0526C13.3005 26.9056 11.7471 26.2578 10.1251 26.25H9.13984C10.5362 22.9486 12.2203 19.7764 14.1728 16.7703C22.0811 5.7365 29.6236 0.252 37.2291 0C41.0196 0 42.5001 1.54875 42.5001 5.23425ZM32.0001 14.875C32.0001 13.7147 31.5392 12.6019 30.7187 11.7814C29.8982 10.9609 28.7854 10.5 27.6251 10.5C26.4648 10.5 25.352 10.9609 24.5315 11.7814C23.711 12.6019 23.2501 13.7147 23.2501 14.875C23.2501 16.0353 23.711 17.1481 24.5315 17.9686C25.352 18.7891 26.4648 19.25 27.6251 19.25C28.7854 19.25 29.8982 18.7891 30.7187 17.9686C31.5392 17.1481 32.0001 16.0353 32.0001 14.875ZM2.90459 41.6237C4.87509 41.2738 9.62634 40.2972 11.2136 38.7118C11.7011 38.2242 12.0879 37.6454 12.3517 37.0084C12.6156 36.3714 12.7514 35.6886 12.7514 34.9991C12.7514 34.3096 12.6156 33.6269 12.3517 32.9899C12.0879 32.3529 11.7011 31.774 11.2136 31.2865C10.726 30.799 10.1472 30.4122 9.51022 30.1483C8.87321 29.8845 8.19047 29.7487 7.50097 29.7487C6.10846 29.7487 4.77299 30.3019 3.78834 31.2865C2.20284 32.8737 1.22459 37.625 0.876342 39.5955L0.444092 42.056L2.90459 41.6237Z" fill="white"/>
</g>
<defs>
<clipPath id="clip0_89_1230">
<rect width="42" height="42" fill="white" transform="translate(0.5)"/>
</clipPath>
</defs>
</svg>
