<svg width="100" height="108" viewBox="0 0 100 108" fill="none" xmlns="http://www.w3.org/2000/svg">
<g id="call_1.svg" clip-path="url(#clip0_89_1488)">
<path id="Vector" opacity="0.2" d="M83.8475 86.744C82.7908 93.38 79.454 99.3776 74.6014 103.115C69.6635 106.926 63.2117 108.313 56.5246 105.645C46.0758 101.471 33.2385 93.1149 21.0551 76.5929C9.02051 60.278 3.84698 45.751 1.82607 34.6709C0.545528 27.6719 3.03123 21.6155 7.59592 17.4883C12.0941 13.4211 18.499 11.3045 25.1686 11.6399C26.8276 11.723 28.4479 12.1661 29.9177 12.9386C31.3875 13.7111 32.6716 14.7946 33.6815 16.1143L41.0849 25.7976C43.3643 28.7758 44.4964 32.4795 44.2743 36.2318C44.0523 39.9842 42.4908 43.5345 39.8753 46.234L36.7664 49.439C35.2625 50.9951 34.8553 52.8449 35.392 54.2207C37.1785 58.8397 40.4986 63.0198 44.7033 66.0732C46.0282 67.0377 48.052 67.1024 49.9707 66.0041L54.0602 63.6634C57.3641 61.7701 61.2404 61.1483 64.9623 61.9147C68.6841 62.6811 71.9957 64.783 74.276 67.8262L81.5947 77.5958C82.5634 78.8898 83.262 80.3665 83.6491 81.9381C84.0361 83.5097 84.1036 85.1441 83.8475 86.744ZM58.8417 99.8234C63.3304 101.615 67.471 100.721 70.8008 98.1562C74.2217 95.5215 76.8444 91.0442 77.6818 85.7729C77.8057 85.001 77.7733 84.2124 77.5866 83.4541C77.4 82.6958 77.0628 81.9833 76.5953 81.3591L69.2741 71.5952C67.9066 69.7698 65.9207 68.5087 63.6885 68.0482C61.4563 67.5877 59.1312 67.9595 57.1489 69.0939L53.0594 71.4346C49.5257 73.4618 44.7817 73.8785 41.0289 71.1487C35.9456 67.452 31.8197 62.3327 29.5642 56.4965C27.918 52.2309 29.5851 47.8749 32.2921 45.0836L35.4009 41.8786C36.9714 40.2592 37.9094 38.1287 38.0434 35.8768C38.1773 33.6248 37.4983 31.4018 36.1305 29.6142L28.7189 19.9342C27.7882 18.7164 26.3694 17.9707 24.8401 17.8934C19.621 17.6287 14.8956 19.3146 11.7761 22.1332C8.72311 24.8918 7.10042 28.7965 7.96984 33.5261C9.82291 43.6683 14.6104 57.3069 26.079 72.8674C37.5911 88.4534 49.4893 96.086 58.8442 99.8176L58.8417 99.8234ZM99.5031 51.147C99.5862 51.9728 99.3386 52.7987 98.8147 53.4431C98.2908 54.0874 97.5336 54.4974 96.7095 54.5829C95.8855 54.6683 95.0622 54.4222 94.4207 53.8986C93.7792 53.3751 93.3722 52.6171 93.289 51.7912L93.0109 49.054C92.1542 40.5081 89.2456 32.3024 84.5336 25.1382C79.8217 17.974 73.4464 12.0644 65.9528 7.91427L64.2253 6.95415C63.8479 6.76634 63.5126 6.50377 63.2396 6.18226C62.9666 5.86075 62.7615 5.48697 62.6368 5.08346C62.512 4.67996 62.4701 4.2551 62.5136 3.8345C62.5572 3.4139 62.6852 3.00629 62.8901 2.63624C63.0949 2.26619 63.3723 1.94138 63.7056 1.68141C64.0388 1.42143 64.4209 1.23168 64.8289 1.12358C65.2369 1.01549 65.6623 0.991305 66.0794 1.05248C66.4965 1.11366 66.8968 1.25893 67.2559 1.47953L68.9802 2.43144C77.3576 7.06962 84.4847 13.6753 89.7522 21.6836C95.0198 29.692 98.2711 38.8648 99.2282 48.418L99.5031 51.147ZM81.2352 51.2907C82.0558 51.1775 82.7987 50.7423 83.3006 50.0809C83.8025 49.4195 84.0223 48.586 83.9117 47.7637L83.7938 46.8678C83.0135 41.0298 80.9774 35.4346 77.8262 30.4688C74.6749 25.5031 70.4838 21.2852 65.5424 18.1069L64.1199 17.196C63.7754 16.9623 63.3877 16.8001 62.9794 16.719C62.5712 16.6379 62.1506 16.6395 61.7426 16.7237C61.3345 16.8079 60.9472 16.973 60.6034 17.2094C60.2596 17.4457 59.9662 17.7485 59.7405 18.0998C59.5148 18.4512 59.3614 18.8441 59.2893 19.2554C59.2172 19.6666 59.2279 20.088 59.3207 20.4947C59.4134 20.9014 59.5865 21.2851 59.8295 21.6234C60.0726 21.9617 60.3809 22.2476 60.7362 22.4644L62.1563 23.3811C66.3371 26.0689 69.8837 29.6359 72.551 33.8358C75.2182 38.0357 76.9425 42.7684 77.6048 47.7068L77.7284 48.6052C77.7826 49.0126 77.9164 49.4051 78.1221 49.7603C78.3279 50.1155 78.6015 50.4264 78.9274 50.6753C79.2533 50.9241 79.625 51.106 80.0214 51.2107C80.4178 51.3153 80.8311 51.3405 81.2377 51.285L81.2352 51.2907Z" fill="#0048AE"/>
</g>
<defs>
<clipPath id="clip0_89_1488">
<rect width="99" height="107" fill="white" transform="translate(0.530273 0.972656)"/>
</clipPath>
</defs>
</svg>
