<svg width="13" height="15" viewBox="0 0 13 15" fill="none" xmlns="http://www.w3.org/2000/svg">
<g id="Icon" clip-path="url(#clip0_1_373)">
<path id="Vector" d="M7.85657 2.0625L12.6691 6.65625C12.7967 6.78385 12.8605 6.9388 12.8605 7.12109C12.8605 7.30339 12.7967 7.45833 12.6691 7.58594L7.85657 12.1797C7.52844 12.4349 7.21855 12.4349 6.92688 12.1797C6.67167 11.8516 6.67167 11.5417 6.92688 11.25L10.5636 7.77734H1.26672C0.865682 7.74089 0.646932 7.52214 0.610474 7.12109C0.646932 6.72005 0.865682 6.5013 1.26672 6.46484H10.5636L6.92688 2.99219C6.67167 2.70052 6.67167 2.39062 6.92688 2.0625C7.21855 1.80729 7.52844 1.80729 7.85657 2.0625Z" fill="white"/>
</g>
<defs>
<clipPath id="clip0_1_373">
<rect width="12.25" height="14" fill="white" transform="matrix(1 0 0 -1 0.610474 14.1211)"/>
</clipPath>
</defs>
</svg>
