<svg width="35" height="35" viewBox="0 0 35 35" fill="none" xmlns="http://www.w3.org/2000/svg">
<g id="Frame" clip-path="url(#clip0_89_1172)">
<g id="Group">
<path id="Vector" d="M25.0562 3.99565C24.1179 3.11193 22.9163 2.6875 21.7054 2.6875C20.3424 2.6875 18.9668 3.2253 17.9408 4.25176L17.5 4.6926L17.0591 4.25159C16.0331 3.22555 14.6575 2.6875 13.2945 2.6875C12.0834 2.6875 10.8824 3.11193 9.94371 3.99565C7.87944 5.93931 7.84257 9.18944 9.8332 11.1801L17.5 18.8468L25.1668 11.1801C27.1574 9.18936 27.1206 5.93923 25.0562 3.99565ZM14.8127 32.3129L14.8068 24.7165C14.8068 21.0479 12.9276 18.897 10.4386 18.0868C9.7439 17.8766 9.12152 17.3242 8.54264 16.7451C7.49094 15.6498 6.3666 14.1518 4.91016 14.1704L4.90882 14.1648C4.43371 14.1711 3.9587 14.3427 3.5468 14.7546C2.58086 15.7206 2.97113 17.1964 3.80417 18.0294L6.51019 20.7352C6.76269 20.9877 6.90455 21.3302 6.90455 21.6874C6.90455 22.0445 6.76269 22.387 6.51019 22.6396L2.85204 18.9816C2.21627 18.3459 1.78426 17.4865 1.66651 16.624C1.5199 15.5495 1.84932 14.5475 2.59424 13.8026C3.15216 13.2447 3.83666 12.9297 4.58327 12.8501L4.03688 10.6433C3.99548 2.45353 0.000336653 3.45406 0.000336653 5.38064L0 19.7581C0 20.6511 0.345911 21.4927 0.974441 22.1278C7.66406 28.8794 6.73305 26.7043 6.73305 32.3129H14.8127ZM34.9997 5.38072C34.9997 3.45423 31.0045 2.45361 30.9631 10.6434L30.4167 12.8503C31.1633 12.9299 31.8478 13.2448 32.4058 13.8028C33.1507 14.5477 33.4802 15.5496 33.3335 16.6242C33.2158 17.4867 32.7838 18.3461 32.148 18.9817L28.4898 22.6397C28.2373 22.3871 28.0953 22.0447 28.0953 21.6875C28.0953 21.3305 28.2373 20.9878 28.4898 20.7354L31.1958 18.0296C32.0289 17.1966 32.4191 15.7207 31.4532 14.7548C31.0413 14.3429 30.5662 14.1712 30.0912 14.165L30.0898 14.1706C28.6334 14.152 27.5091 15.65 26.4574 16.7453C25.8784 17.3244 25.256 17.8767 24.5614 18.087C22.0724 18.8971 20.1932 21.048 20.1932 24.7166L20.1873 32.313H28.2669C28.2669 26.7045 27.3359 28.8796 34.0256 22.1279C34.6542 21.4927 35 20.6511 35 19.7582L34.9997 5.38072Z" fill="white"/>
</g>
</g>
<defs>
<clipPath id="clip0_89_1172">
<rect width="35" height="35" fill="white"/>
</clipPath>
</defs>
</svg>
