<svg width="241" height="57" viewBox="0 0 241 57" fill="none" xmlns="http://www.w3.org/2000/svg">
<g id="Group">
<path id="Vector" d="M0 17.9199H25.5205V30.6802H12.7602V43.2963H25.5205V56.0546H0V17.9199Z" fill="#5CE092"/>
<path id="Vector_2" d="M50.895 0H38.2788V0.144048H50.895V0Z" fill="white"/>
<path id="Vector_3" d="M63.6552 17.9199V56.0546H38.2788V43.2963H50.895V30.6802H38.3508L38.2788 17.9199H63.6552Z" fill="white"/>
<path id="Vector_4" d="M178.205 22.3643V31.8274C179.62 30.3569 181.34 29.1565 183.441 28.9624C197.529 27.662 197.457 52.0101 183.313 50.5916C181.184 50.3776 179.644 49.2072 178.205 47.7427V50.3235H171.611V22.3663H178.205V22.3643ZM182.186 34.5903C176.286 35.2185 176.873 45.4199 183.005 45.0158C189.027 44.6176 188.737 33.8921 182.186 34.5903Z" fill="white"/>
<path id="Vector_5" d="M102.508 32.8303H95.3397C94.0092 29.1511 88.7455 28.4348 85.8765 30.7496C81.7252 34.0987 82.4394 43.0517 88.1413 44.4001C90.9842 45.0723 93.6031 44.2461 95.1736 41.7612C95.2757 41.5992 95.3137 41.2871 95.3397 41.2871H102.508C101.694 45.6665 97.8165 49.1937 93.5291 50.158C82.9296 52.5408 75.0009 44.5001 76.8876 33.9466C79.2764 20.5882 99.4411 19.7219 102.508 32.8283V32.8303Z" fill="white"/>
<path id="Vector_6" d="M121.002 47.5981C116.144 53.32 107.746 50.6031 105.769 43.6928C103.182 34.6538 109.978 25.2727 119.387 30.3604L121.004 31.9709V29.246H127.598V50.321H121.004V47.5961L121.002 47.5981ZM115.952 34.5918C110.012 35.226 110.741 45.4214 116.771 45.0173C122.835 44.6111 122.336 33.9116 115.952 34.5918Z" fill="white"/>
<path id="Vector_7" d="M168.17 41.4334H153.689C153.579 44.9805 158.081 46.7291 160.423 44.0823C160.625 43.8542 160.813 43.298 160.858 43.298H167.74C167.116 47.2633 163.128 50.2883 159.207 50.6064C152.695 51.1386 147.573 47.4954 147.097 40.7872C145.923 24.2517 170.827 25.4 168.17 41.4334ZM161.574 37.7061C161.598 32.9005 154.021 32.9986 153.689 37.7061H161.574Z" fill="white"/>
<path id="Vector_8" d="M205.272 29.0008C213.096 28.2026 218.508 33.1702 217.924 41.0789C217.546 46.1865 213.319 50.2379 208.247 50.612C192.556 51.7684 192.298 30.3233 205.272 29.0008ZM206.27 34.5867C200.946 35.3049 201.375 45.7344 207.509 44.9982C213.093 44.3299 212.602 33.7324 206.27 34.5867Z" fill="white"/>
<path id="Vector_9" d="M226.519 29.2461C227.607 31.2187 229.048 32.9813 230.32 34.838L230.654 34.5999L233.687 29.2461H240.712L233.859 39.9036L241 50.3211H233.759C232.345 48.8566 231.363 46.4678 230.02 45.0273C229.912 44.9113 229.808 44.6812 229.604 44.7292L226.305 50.3211H219.353L226.095 39.5075L219.208 29.2461H226.521H226.519Z" fill="white"/>
<path id="Vector_10" d="M145.374 28.959V35.8413H143.01C142.297 35.8413 140.673 36.3454 140.081 36.7836C139.594 37.1437 138.78 38.5082 138.78 39.0683V50.3221H132.186V29.2471H138.78V32.4021C140.435 30.3615 142.642 28.909 145.374 28.961V28.959Z" fill="white"/>
<path id="Vector_11" d="M50.895 0.141602H38.2788V12.7578H50.895V0.141602Z" fill="white"/>
</g>
</svg>
