<svg width="15" height="15" viewBox="0 0 15 15" fill="none" xmlns="http://www.w3.org/2000/svg">
<g id="Icon" clip-path="url(#clip0_89_1181)">
<path id="Vector" d="M10.917 1.68985C10.917 1.68985 10.6555 1.53806 10.1326 1.23449C9.60962 0.930909 8.73212 0.77912 7.50009 0.77912C6.26805 0.77912 5.12908 1.0827 4.08318 1.68985C3.03728 2.29701 2.21076 3.12353 1.6036 4.16943C0.996448 5.21533 0.692871 6.3543 0.692871 7.58634C0.692871 8.81837 0.996448 9.95734 1.6036 11.0032C2.21076 12.0491 3.03728 12.8757 4.08318 13.4828C5.12908 14.09 6.26805 14.3936 7.50009 14.3936C8.73212 14.3936 9.87109 14.09 10.917 13.4828C11.9629 12.8757 12.7894 12.0491 13.3966 11.0032C14.0037 9.95734 14.3073 8.81837 14.3073 7.58634C14.3073 6.3543 14.0037 5.21533 13.3966 4.16943C12.7894 3.12353 11.9629 2.29701 10.917 1.68985ZM7.50009 13.5559C6.85305 13.5559 6.22595 13.4562 5.6188 13.2568C5.01164 13.0574 4.46432 12.7715 3.97682 12.3993C3.48933 12.027 3.06166 11.5971 2.69382 11.1096C2.32598 10.6221 2.04235 10.0748 1.84292 9.46763C1.64349 8.86047 1.54377 8.23338 1.54377 7.58634C1.54377 6.77975 1.7011 6.00862 2.01576 5.27295C2.33041 4.53727 2.75365 3.90353 3.28546 3.37171C3.81728 2.8399 4.45102 2.41666 5.1867 2.10201C5.92237 1.78735 6.6935 1.63002 7.50009 1.63002C8.30667 1.63002 9.0778 1.78735 9.81348 2.10201C10.5492 2.41666 11.1829 2.8399 11.7147 3.37171C12.2465 3.90353 12.6698 4.53727 12.9844 5.27295C13.2991 6.00862 13.4564 6.77975 13.4564 7.58634C13.4564 8.39292 13.2991 9.16405 12.9844 9.89973C12.6698 10.6354 12.2465 11.2714 11.7147 11.8076C11.1829 12.3439 10.5492 12.7693 9.81348 13.084C9.0778 13.3986 8.30667 13.5559 7.50009 13.5559ZM8.07179 4.88738C8.07179 4.88738 8.04298 4.88738 7.98537 4.88738C7.92776 4.88738 7.85685 4.92948 7.77264 5.01369C7.68844 5.09789 7.64634 5.19982 7.64634 5.31948C7.64634 5.43914 7.68622 5.53885 7.766 5.61863L9.30826 7.16089H4.52193C4.39784 7.16089 4.29591 7.20077 4.21614 7.28054C4.13637 7.36032 4.09648 7.46003 4.09648 7.57969C4.09648 7.69935 4.13637 7.80128 4.21614 7.88548C4.29591 7.96969 4.39784 8.01179 4.52193 8.01179H9.33485L7.766 9.56734C7.73054 9.61166 7.70173 9.66041 7.67958 9.71359C7.65742 9.76677 7.64634 9.81996 7.64634 9.87314C7.64634 9.92632 7.65742 9.9795 7.67958 10.0327C7.70173 10.0859 7.73276 10.1324 7.77264 10.1723C7.81253 10.2122 7.85906 10.2432 7.91224 10.2653C7.96543 10.2875 8.01861 10.2986 8.07179 10.2986C8.18701 10.2986 8.28895 10.2587 8.37758 10.1789L10.8904 7.59963L8.37758 5.02034C8.28895 4.9317 8.18701 4.88738 8.07179 4.88738Z" fill="#0048AE"/>
</g>
<defs>
<clipPath id="clip0_89_1181">
<rect width="14" height="14" fill="white" transform="matrix(1 0 0 -1 0.5 14.5)"/>
</clipPath>
</defs>
</svg>
