<svg width="13" height="15" viewBox="0 0 13 15" fill="none" xmlns="http://www.w3.org/2000/svg">
<g id="Icon" clip-path="url(#clip0_89_1496)">
<path id="Vector" d="M7.85645 2.0625L12.6689 6.65625C12.7965 6.78385 12.8604 6.9388 12.8604 7.12109C12.8604 7.30339 12.7965 7.45833 12.6689 7.58594L7.85645 12.1797C7.52832 12.4349 7.21842 12.4349 6.92676 12.1797C6.67155 11.8516 6.67155 11.5417 6.92676 11.25L10.5635 7.77734H1.2666C0.86556 7.74089 0.64681 7.52214 0.610352 7.12109C0.64681 6.72005 0.86556 6.5013 1.2666 6.46484H10.5635L6.92676 2.99219C6.67155 2.70052 6.67155 2.39062 6.92676 2.0625C7.21842 1.80729 7.52832 1.80729 7.85645 2.0625Z" fill="white"/>
</g>
<defs>
<clipPath id="clip0_89_1496">
<rect width="12.25" height="14" fill="white" transform="matrix(1 0 0 -1 0.610352 14.1211)"/>
</clipPath>
</defs>
</svg>
