<svg width="188" height="195" viewBox="0 0 188 195" fill="none" xmlns="http://www.w3.org/2000/svg">
<g id="Group">
<path id="Vector" d="M187.846 58.3432C187.843 58.177 187.84 58.0107 187.835 57.8427H187.06L97.2496 0.787109L1.61011 57.8427H0.784899C0.779997 58.0125 0.776723 58.177 0.771821 58.3432H0.768555V58.5271V78.4269V171.613C0.768555 184.188 10.1874 194.381 21.8074 194.381H166.813C178.431 194.381 187.851 184.188 187.851 171.613V78.4269V58.5271V58.3432H187.846Z" fill="#E1EEFF"/>
<path id="Vector_2" d="M187.848 57.8389H0.78125V61.0202H187.848V57.8389Z" fill="#E1EEFF"/>
<g id="Group_2">
<path id="Vector_3" d="M156.19 0.919922H30.8555V170.094H156.19V0.919922Z" fill="#DADADA"/>
<g id="Group_3">
<g id="Group_4">
<path id="Vector_4" d="M139.006 29.4316H46.4629V32.8216H139.006V29.4316Z" fill="white"/>
<path id="Vector_5" d="M139.006 35.0342H46.4629V38.4224H139.006V35.0342Z" fill="white"/>
<path id="Vector_6" d="M139.006 40.6357H46.4629V44.024H139.006V40.6357Z" fill="white"/>
</g>
<g id="Group_5">
<path id="Vector_7" d="M139.006 64.3018H46.4629V67.69H139.006V64.3018Z" fill="white"/>
<path id="Vector_8" d="M139.006 69.9043H46.4629V73.2908H139.006V69.9043Z" fill="white"/>
<path id="Vector_9" d="M139.006 75.5059H46.4629V78.8976H139.006V75.5059Z" fill="white"/>
</g>
<g id="Group_6">
<path id="Vector_10" d="M139.006 100.041H46.4629V103.431H139.006V100.041Z" fill="white"/>
<path id="Vector_11" d="M139.006 105.65H46.4629V109.039H139.006V105.65Z" fill="white"/>
<path id="Vector_12" d="M139.006 111.245H46.4629V114.635H139.006V111.245Z" fill="white"/>
</g>
<g id="Group_7">
<path id="Vector_13" d="M139.006 135.796H46.4629V139.184H139.006V135.796Z" fill="white"/>
<path id="Vector_14" d="M139.006 141.398H46.4629V144.785H139.006V141.398Z" fill="white"/>
<path id="Vector_15" d="M139.006 147H46.4629V150.388H139.006V147Z" fill="white"/>
</g>
</g>
</g>
<path id="Vector_16" d="M187.851 58.5225V171.608C187.851 184.183 178.431 194.376 166.813 194.376H21.8074C10.189 194.376 0.768555 184.183 0.768555 171.608V58.5225L94.3083 126.448L187.851 58.5225Z" fill="#0048AE"/>
<path id="Vector_17" d="M94.3083 126.448L0.768555 58.5225V63.5394L94.3083 131.469L187.851 63.5394V58.5225L94.3083 126.448Z" fill="white"/>
</g>
</svg>
