<svg width="37" height="41" viewBox="0 0 37 41" fill="none" xmlns="http://www.w3.org/2000/svg">
<g id="process_card_1.svg" clip-path="url(#clip0_89_1386)">
<path id="Vector" fill-rule="evenodd" clip-rule="evenodd" d="M10.846 0.627155C10.0292 0.893631 9.32784 1.60762 9.14173 2.3621C9.09392 2.55557 9.05484 3.45255 9.05467 4.3554C9.05451 6.26631 9.11498 6.49174 9.73 6.87117L10.0868 7.0913L15.1252 7.11522C18.5657 7.13155 20.2622 7.11224 20.4744 7.05448C20.8506 6.95208 21.2567 6.64613 21.4291 6.33533C21.4991 6.20932 21.5789 5.80785 21.6065 5.44319L21.6567 4.78032L25.039 4.80237L28.4213 4.82441L28.6414 5.02968C28.8197 5.19594 28.8639 5.31476 28.8739 5.65503C28.8838 5.99311 28.8617 6.06932 28.7604 6.0454C28.6912 6.02906 28.1628 5.9992 27.5862 5.97912C25.3559 5.90126 23.4834 6.55701 21.8669 7.9821C18.5308 10.9233 18.4422 15.6601 21.6673 18.6659C23.4419 20.3198 25.8806 21.0873 28.4053 20.7863L28.9309 20.7236L28.9085 29.8017L28.8862 38.8796L28.6123 39.1077L28.3384 39.3358H15.3776C1.28481 39.3358 2.07562 39.3608 1.85429 38.9081C1.77755 38.7512 1.75406 34.7954 1.75406 22.053C1.75406 3.93869 1.72337 5.08667 2.213 4.87874C2.36632 4.81362 3.1256 4.78533 4.72082 4.78533C7.00387 4.78533 7.00907 4.78494 7.19107 4.60444C7.43429 4.36306 7.42356 4.04327 7.16398 3.80134L6.95455 3.60615L4.49856 3.62898C2.0518 3.65181 2.04099 3.65267 1.6265 3.8516C1.15808 4.07642 0.713312 4.56716 0.583732 5.00224C0.525106 5.19884 0.498016 10.753 0.500113 22.0996C0.502797 35.9362 0.523177 38.9577 0.615687 39.1992C0.781247 39.6315 1.12143 40.0077 1.56821 40.2525L1.96374 40.4692L15.1696 40.4897C29.8328 40.5125 28.8527 40.5466 29.465 39.9923C29.6318 39.8414 29.8529 39.5703 29.9563 39.39L30.1443 39.0622L30.1672 29.7178L30.1902 20.3733L30.8382 20.0753C32.4451 19.3365 33.8157 18.0401 34.5509 16.5636C34.8944 15.8736 35.1951 14.8406 35.2618 14.1209C35.314 13.5575 35.3027 13.4816 35.137 13.2861C35.003 13.1281 34.8801 13.0712 34.6733 13.0712C34.2666 13.0712 34.0819 13.3281 34.0158 13.9854C33.795 16.1806 32.3016 18.1607 30.1636 19.0932C28.8301 19.6748 27.0527 19.8313 25.6617 19.4897C24.0097 19.0838 22.5723 18.1272 21.6783 16.8384C20.9127 15.7348 20.5986 14.7321 20.596 13.3839C20.5926 11.6382 21.1974 10.2845 22.554 9.00103C23.3867 8.21317 24.103 7.79395 25.2379 7.43008C25.9935 7.18783 26.0974 7.17462 27.2508 7.17353C28.6511 7.17228 29.1617 7.2728 30.2282 7.75971C31.4123 8.30033 31.5393 8.01853 29.0767 10.3137L26.9232 12.3208L25.7221 11.2241C24.7439 10.331 24.4447 10.1033 24.1096 9.99689C23.1036 9.67742 22.0935 10.0275 21.6118 10.8626C21.3059 11.3928 21.2538 11.8016 21.4228 12.3452C21.5575 12.7786 21.65 12.8788 23.6292 14.7338C24.9297 15.9528 25.8221 16.7274 26.0381 16.8248C26.5021 17.0342 27.3279 17.0345 27.7904 16.8255C28.0155 16.7238 29.5174 15.3757 32.2102 12.8585C36.6042 8.75081 36.5015 8.86619 36.4995 8.03338C36.497 6.98131 35.613 6.16867 34.4636 6.16164C33.7803 6.1575 33.3697 6.34518 32.6467 6.99218L32.1265 7.45775L31.7644 7.22621C31.5653 7.09888 31.1342 6.86898 30.8065 6.71546L30.2105 6.43632L30.1667 5.78666C30.0989 4.7811 29.7551 4.21649 28.9701 3.82088C28.6438 3.6565 28.5388 3.65126 25.1448 3.62914L21.6549 3.60639L21.5998 3.04287C21.5694 2.73293 21.4861 2.31333 21.4144 2.1104C21.2474 1.6374 20.6386 1.00612 20.0889 0.735809L19.6605 0.525145L15.4669 0.506385C11.6266 0.489266 11.2374 0.499428 10.846 0.627155ZM19.6754 1.8612C19.8056 1.95117 19.9977 2.14198 20.1024 2.28534C20.2876 2.53908 20.2921 2.59075 20.2701 4.23236L20.2476 5.91877L15.3924 5.93894C11.8764 5.95355 10.5059 5.93479 10.4231 5.87077C10.3338 5.80159 10.3089 5.44648 10.3089 4.24088C10.3089 2.78249 10.3193 2.68103 10.502 2.35898C10.6348 2.12502 10.8107 1.96165 11.0647 1.83642L11.4343 1.65429L15.4365 1.67594C19.3473 1.6972 19.4441 1.70142 19.6754 1.8612ZM34.9769 7.49066C35.1888 7.66935 35.2853 7.99344 35.2071 8.26382C35.1597 8.42821 33.9654 9.59128 31.214 12.1527L27.2885 15.8071H26.9174H26.5462L24.6346 14.0316C22.6679 12.2049 22.469 11.9607 22.6291 11.5684C22.7418 11.2922 23.1181 11.0388 23.4157 11.0388C23.6293 11.0388 23.8936 11.2465 25.1563 12.4068C26.4806 13.6235 26.6757 13.7747 26.9227 13.7747C27.1762 13.7747 27.4987 13.4977 30.6432 10.5789C32.5369 8.82124 34.1428 7.36293 34.212 7.33823C34.4029 7.26999 34.812 7.35152 34.9769 7.49066ZM4.1183 9.32215C3.99853 9.42611 3.9347 9.57447 3.9347 9.74902C3.9347 9.92357 3.99853 10.0719 4.1183 10.1759C4.29384 10.3284 4.40287 10.3353 6.63819 10.3353H8.97458L9.1804 10.1434C9.29362 10.0379 9.3863 9.86041 9.3863 9.74902C9.3863 9.63763 9.29362 9.46019 9.1804 9.35466L8.97458 9.16276H6.63819C4.40287 9.16276 4.29384 9.16964 4.1183 9.32215ZM5.13607 14.8205C4.36857 15.0546 3.89251 15.4533 3.55175 16.1477C3.35356 16.5516 3.3315 16.6769 3.36472 17.2118C3.41168 17.9677 3.71412 18.5215 4.31212 18.9465C5.607 19.8668 7.37449 19.4681 8.17931 18.074C8.30067 17.8638 8.33724 17.6372 8.33699 17.0969C8.33666 16.3246 8.21093 16.0002 7.70259 15.4606C7.14796 14.8718 5.94877 14.5727 5.13607 14.8205ZM9.5111 15.4173C9.30176 15.6329 9.31643 16.0112 9.5423 16.2218C9.72564 16.3927 9.74082 16.3934 13.5611 16.4166C15.6703 16.4293 17.5187 16.4189 17.6689 16.3934C17.9919 16.3385 18.2766 16.0803 18.2766 15.8419C18.2766 15.7484 18.1983 15.5791 18.1027 15.4659L17.9289 15.2599H13.7964C9.76162 15.2599 9.6603 15.2637 9.5111 15.4173ZM6.48404 16.0624C7.02651 16.3523 7.29037 17.075 7.02769 17.5515C6.58451 18.3554 5.59987 18.512 4.94534 17.8825C4.71034 17.6565 4.65532 17.5369 4.62378 17.1822C4.593 16.8362 4.62127 16.7009 4.77165 16.4742C5.13892 15.9203 5.88319 15.7414 6.48404 16.0624ZM9.76078 17.992C9.3535 18.1459 9.22334 18.6364 9.5111 18.9328C9.6603 19.0864 9.76162 19.0902 13.7964 19.0902H17.9289L18.1027 18.8842C18.385 18.5498 18.3015 18.2159 17.8837 18.0085C17.6679 17.9014 10.0418 17.8859 9.76078 17.992ZM5.31857 21.9724C4.54352 22.1612 3.95081 22.602 3.60517 23.2467C2.96004 24.45 3.5213 25.8985 4.853 26.4672C5.13019 26.5856 5.40697 26.6306 5.86373 26.6318C6.88762 26.6344 7.64674 26.1991 8.14811 25.3219C8.30328 25.0503 8.33682 24.8672 8.33733 24.2884C8.33783 23.6541 8.31342 23.5436 8.08915 23.1662C7.8123 22.7004 7.43387 22.3755 6.8914 22.1379C6.4884 21.9613 5.70312 21.8787 5.31857 21.9724ZM9.5111 22.5306C9.28012 22.7684 9.31425 23.1444 9.58667 23.3627L9.81504 23.5458H15.1314H20.4478L20.6754 23.3634C20.9636 23.1323 20.9778 22.7169 20.7046 22.5107C20.5351 22.3827 20.1482 22.3732 15.0932 22.3732C9.75885 22.3732 9.66123 22.376 9.5111 22.5306ZM6.5274 23.2932C7.34908 23.8602 7.30932 24.8985 6.44973 25.3221C6.01453 25.5366 5.76392 25.543 5.3106 25.3511C4.81459 25.1413 4.57531 24.7478 4.62227 24.2196C4.66597 23.7286 4.86047 23.4524 5.31857 23.2307C5.71477 23.0391 6.1951 23.0638 6.5274 23.2932ZM9.83534 25.085C9.37623 25.1688 9.20229 25.7539 9.5423 26.0711C9.72245 26.2391 9.77898 26.243 12.303 26.2668C13.7202 26.2801 15.0026 26.2697 15.1527 26.2437C15.8703 26.1191 15.9759 25.3489 15.3078 25.1122C15.0884 25.0345 10.2447 25.0104 9.83534 25.085ZM5.43766 29.1017C4.67436 29.2119 3.94971 29.7076 3.58655 30.3681C3.33603 30.8235 3.28051 31.6812 3.46763 32.2061C3.64711 32.7098 4.17164 33.2656 4.72116 33.5344C5.08943 33.7145 5.25265 33.7446 5.86373 33.7447C6.4416 33.7449 6.64373 33.7116 6.93073 33.5695C7.50147 33.2867 7.88635 32.9208 8.14132 32.4186C9.0093 30.7086 7.4613 28.8094 5.43766 29.1017ZM9.61233 29.5734C9.23877 29.7759 9.28616 30.3995 9.68798 30.5701C9.83509 30.6327 11.0822 30.6591 13.8812 30.6591H17.8649L18.0707 30.4672C18.1839 30.3617 18.2766 30.1842 18.2766 30.0728C18.2766 29.9614 18.1839 29.784 18.0707 29.6785L17.8649 29.4866L13.8143 29.4889C11.1411 29.4905 9.71222 29.5192 9.61233 29.5734ZM6.28308 30.3101C6.76358 30.4345 7.12179 30.9275 7.12179 31.4644C7.12179 32.3159 6.11534 32.8684 5.27831 32.4763C4.44547 32.0864 4.36588 31.0138 5.12978 30.4748C5.50686 30.2087 5.75461 30.1733 6.28308 30.3101ZM9.54934 32.3666C9.2729 32.5752 9.29052 32.9745 9.58667 33.2119L9.81504 33.395H15.1314H20.4478L20.6754 33.2126C20.9636 32.9815 20.9778 32.5661 20.7046 32.3599C20.5351 32.2319 20.1499 32.2225 15.1314 32.2225C10.0172 32.2225 9.73059 32.2299 9.54934 32.3666Z" fill="#0A50B2"/>
</g>
<defs>
<clipPath id="clip0_89_1386">
<rect width="36" height="40" fill="white" transform="translate(0.5 0.5)"/>
</clipPath>
</defs>
</svg>
