<svg width="41" height="40" viewBox="0 0 41 40" fill="none" xmlns="http://www.w3.org/2000/svg">
<g clip-path="url(#clip0_89_1424)">
<g clip-path="url(#clip1_89_1424)">
<path fill-rule="evenodd" clip-rule="evenodd" d="M35.8468 0.0479005C34.5626 0.470953 33.8274 1.73377 34.1557 2.95262C34.2195 3.1893 34.2477 3.40446 34.2185 3.43075C34.0531 3.57972 27.4228 8.87981 27.3399 8.92941C27.2836 8.96298 27.0834 8.9133 26.8817 8.81565C26.3879 8.57647 25.5891 8.52569 25.064 8.70017C24.5228 8.88004 23.879 9.47444 23.6427 10.0124C23.445 10.4624 23.399 11.3383 23.5529 11.7237C23.6451 11.9549 24.1229 11.5406 19.2434 15.4615L16.6777 17.523L16.1933 17.3047C15.6067 17.0403 14.9439 17.0119 14.3809 17.227L14.0093 17.3689L13.2835 16.6353C12.8843 16.2318 11.2195 14.518 9.58391 12.8269L6.61008 9.75228L6.77556 9.38431C7.02723 8.82465 7.00877 8.0445 6.73036 7.47529C6.30406 6.60353 5.53898 6.12837 4.5647 6.13032C3.60911 6.13228 2.88125 6.58005 2.45871 7.426C2.14182 8.06038 2.11969 8.87895 2.40287 9.48735C2.631 9.97754 3.2708 10.5643 3.75794 10.7305C4.22302 10.889 4.90865 10.8897 5.39641 10.7321L5.77688 10.6092L7.06727 11.9243C7.77698 12.6476 8.93786 13.8384 9.64702 14.5705C10.3561 15.3026 11.4395 16.4138 12.0545 17.0397L13.1726 18.1778L13.002 18.5636C12.6363 19.3907 12.8547 20.4738 13.5218 21.1412C14.6044 22.2243 16.4877 21.9948 17.2336 20.689C17.6275 19.9993 17.6945 19.2811 17.4295 18.5901C17.392 18.4924 18.1708 17.8267 20.7245 15.7736C22.5637 14.2948 24.1324 13.0386 24.2106 12.9819C24.3325 12.8936 24.4169 12.9103 24.8014 13.0992C25.7443 13.5625 26.9278 13.3228 27.6282 12.5266C28.1498 11.9339 28.355 10.9463 28.1103 10.2067C28.0167 9.92402 28.022 9.90282 28.2265 9.74195C28.3442 9.64924 29.9175 8.38681 31.7226 6.93644L35.0045 4.29955L35.4028 4.50626C35.7432 4.68301 35.8983 4.7129 36.4691 4.71196C37.0415 4.71102 37.1946 4.68074 37.5378 4.50047C38.0488 4.23226 38.5392 3.67557 38.7053 3.17522C38.8889 2.62236 38.835 1.7804 38.5844 1.28373C38.3537 0.826717 37.908 0.408751 37.4218 0.193586C37.0331 0.0216113 36.1692 -0.0582733 35.8468 0.0479005ZM37.026 1.31268C37.4438 1.52596 37.6449 1.87046 37.6452 2.37379C37.6457 3.11677 37.1039 3.61806 36.3689 3.55469C35.8945 3.51377 35.6236 3.3191 35.3885 2.85012C35.1749 2.42394 35.1994 2.10831 35.4788 1.68996C35.823 1.17442 36.4537 1.0206 37.026 1.31268ZM5.11511 7.43195C5.57527 7.66409 5.85712 8.18917 5.7768 8.6648C5.59224 9.7576 4.12042 10.0548 3.54764 9.11485C3.33883 8.7723 3.33993 8.17955 3.54991 7.83959C3.72267 7.56011 4.25274 7.25606 4.56767 7.25598C4.67685 7.2559 4.92319 7.33516 5.11511 7.43195ZM26.4659 9.93591C26.8253 10.1782 27.0227 10.5456 27.0227 10.9724C27.0227 11.4471 26.81 11.7928 26.3822 12.0142C25.7083 12.3627 24.9708 12.0772 24.6979 11.3623C24.4832 10.7999 24.6914 10.2504 25.25 9.90524C25.5823 9.69986 26.1365 9.71386 26.4659 9.93591ZM34.3 9.86996C33.5092 10.0673 32.7898 10.7315 32.5312 11.5032C32.418 11.8409 32.4058 13.1596 32.4058 24.9383C32.4058 37.9671 32.4061 38.0001 32.5681 38.4331C32.7654 38.9608 33.3038 39.5367 33.8526 39.8072C34.2404 39.9984 34.2617 40 36.4724 40H38.7013L39.1093 39.7848C39.6274 39.5116 40.0118 39.127 40.2849 38.6086L40.5 38.2004V24.9385V11.6766L40.281 11.2303C40.017 10.6926 39.4294 10.1404 38.9159 9.94781C38.604 9.83076 38.2395 9.80525 36.6288 9.7878C35.2442 9.7727 34.5983 9.79555 34.3 9.86996ZM38.6386 11.1092C38.7761 11.1845 38.9873 11.3754 39.1078 11.5334L39.3269 11.8208L39.3493 24.6977C39.3616 31.7799 39.3511 37.6897 39.3259 37.8304C39.269 38.1483 38.8652 38.6193 38.5291 38.7598C38.3411 38.8383 37.8065 38.8655 36.4481 38.8655C34.6859 38.8655 34.6077 38.8589 34.2754 38.6836C34.0606 38.5702 33.865 38.386 33.7561 38.1946L33.5814 37.8875L33.5801 24.9556C33.5788 10.9734 33.5556 11.7392 33.9914 11.3374C34.3863 10.9733 34.6565 10.9334 36.5897 10.9536C38.1314 10.9697 38.4242 10.9919 38.6386 11.1092ZM1.92473 15.3958C1.38323 15.6666 0.947475 16.1092 0.704256 16.6353C0.537757 16.9956 0.537054 17.0243 0.516016 24.4479C0.495136 31.8329 0.496387 31.9004 0.652875 32.0569C0.86184 32.266 1.30652 32.2668 1.5147 32.0585C1.66884 31.9043 1.67111 31.7977 1.67111 24.6662C1.67111 16.5391 1.63897 16.9957 2.24193 16.5587L2.55483 16.3319H4.56486C6.52061 16.3319 6.58193 16.3367 6.83343 16.508C6.97561 16.6048 7.16557 16.7834 7.25559 16.9049L7.41919 17.1258L7.4396 27.4983L7.46001 37.8708L7.26474 38.2041C7.13429 38.4269 6.95715 38.5919 6.73083 38.7015C6.41699 38.8535 6.26003 38.8655 4.58417 38.8655C2.6665 38.8655 2.48405 38.8377 2.11117 38.4888C1.71373 38.1171 1.67111 37.9074 1.67111 36.3251C1.67111 34.9795 1.65985 34.8639 1.5147 34.7187C1.30393 34.5078 0.861762 34.5113 0.647792 34.7253C0.490991 34.8822 0.485829 34.9515 0.51195 36.5445C0.538696 38.1727 0.542762 38.2073 0.753213 38.6086C1.02474 39.1264 1.40912 39.5112 1.92786 39.7848L2.33585 40H4.5647C6.70815 40 6.80794 39.9933 7.16909 39.825C7.69729 39.5788 8.27022 38.9646 8.47011 38.4302C8.63333 37.9937 8.63356 37.9783 8.61292 27.4559L8.59227 16.9187L8.38151 16.5191C8.11279 16.0094 7.5146 15.471 7.02152 15.2948C6.69087 15.1767 6.34105 15.1576 4.51856 15.1579L2.3999 15.1583L1.92473 15.3958ZM23.3367 17.5996C22.7502 17.8249 22.1601 18.4239 21.9371 19.0204L21.7673 19.474L21.7881 28.8373L21.809 38.2004L22.0004 38.5896C22.2443 39.0855 22.7176 39.559 23.2166 39.8063C23.6051 39.9987 23.6222 40 25.8365 40H28.0654L28.5737 39.72C28.9051 39.5374 29.181 39.3097 29.3663 39.0655C29.9266 38.3275 29.9032 38.6685 29.9032 31.2279C29.9032 24.6516 29.9008 24.5449 29.7468 24.3908C29.529 24.1729 29.1167 24.1849 28.9001 24.4154L28.7301 24.5965V31.1859C28.7301 38.3495 28.7475 38.0609 28.2901 38.4888C27.9172 38.8377 27.7347 38.8655 25.817 38.8655C24.1412 38.8655 23.9842 38.8535 23.6704 38.7015C23.4446 38.5921 23.2669 38.4269 23.1373 38.2056L22.9429 37.8737V28.7428C22.9429 19.8011 22.9461 19.6056 23.0975 19.3085C23.1826 19.1418 23.3673 18.9231 23.5081 18.8227C23.7582 18.6443 23.8101 18.6396 25.7583 18.6197C27.7045 18.5999 27.7601 18.6037 28.0654 18.7765C28.5826 19.0694 28.7301 19.465 28.7301 20.5599C28.7301 21.4086 28.7421 21.4798 28.9111 21.6387C29.1451 21.8587 29.5376 21.8616 29.754 21.6452C29.9073 21.4917 29.9159 21.4125 29.8908 20.3737C29.866 19.3467 29.8481 19.2334 29.6446 18.8189C29.3755 18.2704 28.8568 17.799 28.289 17.5864C27.9001 17.4408 27.6896 17.4276 25.814 17.4314C23.9257 17.4351 23.7304 17.4484 23.3367 17.5996ZM15.8392 18.4249C16.4601 18.7905 16.5896 19.6915 16.0993 20.2345C15.6024 20.7847 14.8394 20.8106 14.3646 20.2935C13.7829 19.66 13.8872 18.8828 14.6141 18.4336C14.9167 18.2465 15.5288 18.2422 15.8392 18.4249ZM13.1991 24.3897C12.3905 24.5589 11.6776 25.1131 11.3574 25.8215L11.173 26.2295L11.1515 32.0559C11.1275 38.5593 11.1104 38.3272 11.6689 39.063C11.8562 39.3097 12.1307 39.5367 12.4634 39.72L12.9718 40H15.2006C17.4149 40 17.432 39.9987 17.8205 39.8063C18.3195 39.559 18.7928 39.0855 19.0367 38.5896L19.2282 38.2004V32.1758V26.1512L19.0174 25.7516C18.7529 25.2501 18.1288 24.6822 17.6441 24.5021C17.335 24.3873 16.9598 24.3608 15.3961 24.3435C14.3638 24.3321 13.3751 24.3529 13.1991 24.3897ZM17.0947 25.5679C17.4675 25.6715 17.8515 25.9955 17.9875 26.3211C18.0743 26.5288 18.0942 27.6275 18.0942 32.2002V37.8237L17.9141 38.1645C17.7898 38.3996 17.6263 38.5622 17.3864 38.6891C17.0449 38.8697 17.0057 38.8725 15.1167 38.8496C13.2133 38.8266 13.1917 38.8244 12.906 38.6308C12.7473 38.5232 12.5477 38.292 12.4623 38.117C12.3118 37.8088 12.307 37.626 12.307 32.1877C12.307 26.1367 12.2976 26.2793 12.7196 25.8903C13.0952 25.5441 13.4053 25.4932 15.1615 25.49C16.0648 25.4884 16.9347 25.5234 17.0947 25.5679Z" fill="#0A50B2"/>
</g>
</g>
<defs>
<clipPath id="clip0_89_1424">
<rect width="40" height="40" fill="white" transform="translate(0.5)"/>
</clipPath>
<clipPath id="clip1_89_1424">
<rect width="40" height="40" fill="white" transform="translate(0.5)"/>
</clipPath>
</defs>
</svg>
