<svg width="14" height="14" viewBox="0 0 14 14" fill="none" xmlns="http://www.w3.org/2000/svg">
<g id="Icon" clip-path="url(#clip0_89_1359)">
<path id="Vector" d="M9.02246 4.81312H13.3428C13.6527 4.83135 13.8623 4.97718 13.9717 5.25062C14.0446 5.54228 13.9717 5.78838 13.7529 5.9889L10.1709 8.77796L11.5654 13.153C11.6383 13.4446 11.5563 13.6907 11.3193 13.8912C11.0459 14.0553 10.7816 14.0462 10.5264 13.8639L6.99902 11.1022L3.47168 13.8639C3.21647 14.0462 2.95215 14.0553 2.67871 13.8912C2.44173 13.6907 2.3597 13.4446 2.43262 13.153L3.82715 8.77796L0.245117 5.9889C0.0263672 5.78838 -0.0465495 5.54228 0.0263672 5.25062C0.135742 4.97718 0.345378 4.83135 0.655273 4.81312H5.00293L6.37012 0.465461C6.47949 0.173794 6.68913 0.0188452 6.99902 0.000616074C7.30892 0.0188452 7.51855 0.173794 7.62793 0.465461L9.02246 4.81312Z" fill="#0A50B2"/>
</g>
<defs>
<clipPath id="clip0_89_1359">
<rect width="14" height="14" fill="white" transform="matrix(1 0 0 -1 -0.000976562 14)"/>
</clipPath>
</defs>
</svg>
